<svg xmlns="http://www.w3.org/2000/svg" viewBox="0 0 682.35 188.26"><defs><style>.cls-1,.cls-2,.cls-3,.cls-4,.cls-5{fill:none;}.cls-1{stroke:#000;}.cls-1,.cls-2{stroke-linecap:round;stroke-linejoin:round;}.cls-1,.cls-2,.cls-3,.cls-4{stroke-width:0.14px;}.cls-2,.cls-3,.cls-5{stroke:red;}.cls-3,.cls-4,.cls-5{stroke-miterlimit:10;}.cls-4{stroke:blue;}.cls-5{stroke-width:0.14px;}</style></defs><g id="SeitenteileV2"><path class="cls-1" d="M14,89.76" transform="translate(-3.11 -2.45)"/><path class="cls-1" d="M5.53,89.76" transform="translate(-3.11 -2.45)"/><path class="cls-2" d="M340.68,79.21V53.69a.15.15,0,0,0-.15-.14h-8.36c-.14,0,0,.14,0,0V36.83c0-.14-.14,0,0,0h8.36a.15.15,0,0,0,.15-.14v-34a.15.15,0,0,0-.15-.14H300.85a.14.14,0,0,0-.14.14V11c0,.14.14,0,0,0H284c-.14,0,0,.14,0,0V2.67a.14.14,0,0,0-.14-.14h-17a.14.14,0,0,0-.14.14V11c0,.14.14,0,0,0H250c-.15,0,0,.14,0,0V2.67a.15.15,0,0,0-.15-.14h-17a.14.14,0,0,0-.14.14V11c0,.14.14,0,0,0H216c-.14,0,0,.14,0,0V2.67a.14.14,0,0,0-.14-.14h-17a.14.14,0,0,0-.14.14V11c0,.14.14,0,0,0H181.93c-.14,0,0,.14,0,0V2.67a.14.14,0,0,0-.14-.14h-17a.15.15,0,0,0-.15.14V11c0,.14.15,0,0,0H147.92c-.14,0,0,.14,0,0V2.67a.14.14,0,0,0-.14-.14h-17a.14.14,0,0,0-.14.14V11c0,.14.14,0,0,0H113.9c-.14,0,0,.14,0,0V2.67a.14.14,0,0,0-.14-.14h-17a.14.14,0,0,0-.14.14V11c0,.14.14,0,0,0H79.89c-.14,0,0,.14,0,0V2.67a.14.14,0,0,0-.14-.14h-17a.14.14,0,0,0-.14.14V11c0,.14.14,0,0,0H45.87c-.14,0,0,.14,0,0V2.67a.14.14,0,0,0-.14-.14H6.05a.15.15,0,0,0-.15.14v34a.15.15,0,0,0,.15.14h8.36c.14,0,0-.14,0,0V53.55c0,.14.14,0,0,0H6.05a.15.15,0,0,0-.15.14V79.8" transform="translate(-3.11 -2.45)"/><path class="cls-2" d="M685.26,79.2V53.69a.15.15,0,0,0-.14-.15h-8.37c-.14,0,0,.15,0,0V36.82c0-.14-.14,0,0,0h8.37a.14.14,0,0,0,.14-.14v-34a.14.14,0,0,0-.14-.14H645.43c-.08,0-.22.17-.22.25l.08,8.25c0,.15.14,0,0,0H628.57c-.15,0,0,.15,0,0l0-8.2c0-.08-.12-.3-.2-.3h-17c-.08,0-.21.22-.21.3l.06,8.2c0,.15.15,0,0,0H594.55c-.14,0,0,.15,0,0l.12-8.23c0-.08-.18-.27-.26-.27h-17c-.08,0-.26.39-.26.47l.12,8c0,.15.14,0,0,0H560.53c-.14,0,0,.15,0,0l.1-8c0-.08-.16-.54-.24-.54h-17c-.08,0-.27.39-.27.47l.13,8c0,.15.14,0,0,0H526.52c-.14,0,0,.15,0,0l.13-8.08c0-.08-.19-.42-.27-.42h-17c-.08,0-.31.46-.31.54l.17,8c0,.15.14,0,0,0H492.5c-.14,0,0,.15,0,0l.08-8c0-.08-.14-.47-.22-.47h-17c-.08,0-.28.41-.28.49l.14,8c0,.15.14,0,0,0H458.49c-.15,0,0,.15,0,0l.14-8.11c0-.08-.21-.39-.29-.39h-17c-.08,0-.25.34-.25.42L441.2,11c0,.15.14,0,0,0H424.47c-.14,0,0,.15,0,0l.11-8c0-.08-.17-.52-.25-.52h-17c-.08,0-.2.53-.2.61l.06,7.89c0,.15.14,0,0,0H390.45c-.14,0,0,.15,0,0l.16-8c0-.08-.22-.49-.3-.49H350.63a.14.14,0,0,0-.14.14v34a.14.14,0,0,0,.14.14H359c.14,0,0-.14,0,0V53.54c0,.15.14,0,0,0h-8.36a.15.15,0,0,0-.14.15v26.1" transform="translate(-3.11 -2.45)"/><path class="cls-1" d="M300.33,89.76" transform="translate(-3.11 -2.45)"/><path class="cls-1" d="M300.19,81.26" transform="translate(-3.11 -2.45)"/><path class="cls-1" d="M283.46,81.26" transform="translate(-3.11 -2.45)"/><path class="cls-1" d="M283.32,89.76" transform="translate(-3.11 -2.45)"/><path class="cls-1" d="M266.31,89.76" transform="translate(-3.11 -2.45)"/><path class="cls-1" d="M266.17,81.26" transform="translate(-3.11 -2.45)"/><path class="cls-1" d="M249.45,81.26" transform="translate(-3.11 -2.45)"/><path class="cls-1" d="M249.45,89.62" transform="translate(-3.11 -2.45)"/><path class="cls-1" d="M232.3,89.76" transform="translate(-3.11 -2.45)"/><path class="cls-1" d="M232.16,81.26" transform="translate(-3.11 -2.45)"/><path class="cls-1" d="M215.43,81.26" transform="translate(-3.11 -2.45)"/><path class="cls-1" d="M215.43,89.62" transform="translate(-3.11 -2.45)"/><path class="cls-1" d="M198.28,89.76" transform="translate(-3.11 -2.45)"/><path class="cls-1" d="M198.14,81.26" transform="translate(-3.11 -2.45)"/><path class="cls-1" d="M181.42,81.26" transform="translate(-3.11 -2.45)"/><path class="cls-1" d="M164.27,89.76" transform="translate(-3.11 -2.45)"/><path class="cls-1" d="M164.13,81.26" transform="translate(-3.11 -2.45)"/><path class="cls-1" d="M147.4,81.26" transform="translate(-3.11 -2.45)"/><path class="cls-1" d="M147.26,89.76" transform="translate(-3.11 -2.45)"/><path class="cls-1" d="M130.25,89.76" transform="translate(-3.11 -2.45)"/><path class="cls-1" d="M130.11,81.26" transform="translate(-3.11 -2.45)"/><path class="cls-1" d="M113.39,81.26" transform="translate(-3.11 -2.45)"/><path class="cls-1" d="M96.09,81.26" transform="translate(-3.11 -2.45)"/><path class="cls-1" d="M79.37,81.26" transform="translate(-3.11 -2.45)"/><path class="cls-1" d="M79.37,89.62" transform="translate(-3.11 -2.45)"/><path class="cls-1" d="M62.08,89.62" transform="translate(-3.11 -2.45)"/><path class="cls-1" d="M45.35,81.26" transform="translate(-3.11 -2.45)"/><path class="cls-1" d="M45.35,89.62" transform="translate(-3.11 -2.45)"/><path class="cls-1" d="M14,89.76" transform="translate(-3.11 -2.45)"/><polyline class="cls-2" points="337.04 76.66 310.08 77.07 310 85.39 30.94 85.39 30.93 77.36"/><line class="cls-2" x1="31.02" y1="77.23" x2="2.27" y2="77.23"/><path class="cls-1" d="M358.31,89.76" transform="translate(-3.11 -2.45)"/><path class="cls-1" d="M349.8,89.76" transform="translate(-3.11 -2.45)"/><path class="cls-1" d="M644.61,89.76" transform="translate(-3.11 -2.45)"/><path class="cls-1" d="M644.47,81.26" transform="translate(-3.11 -2.45)"/><path class="cls-1" d="M627.74,81.26" transform="translate(-3.11 -2.45)"/><path class="cls-1" d="M627.6,89.76" transform="translate(-3.11 -2.45)"/><path class="cls-1" d="M610.59,89.76" transform="translate(-3.11 -2.45)"/><path class="cls-1" d="M610.45,81.26" transform="translate(-3.11 -2.45)"/><path class="cls-1" d="M593.73,81.26" transform="translate(-3.11 -2.45)"/><path class="cls-1" d="M593.73,89.62" transform="translate(-3.11 -2.45)"/><path class="cls-1" d="M576.58,89.76" transform="translate(-3.11 -2.45)"/><path class="cls-1" d="M576.43,81.26" transform="translate(-3.11 -2.45)"/><path class="cls-1" d="M559.71,81.26" transform="translate(-3.11 -2.45)"/><path class="cls-1" d="M559.71,89.62" transform="translate(-3.11 -2.45)"/><path class="cls-1" d="M542.56,89.76" transform="translate(-3.11 -2.45)"/><path class="cls-1" d="M542.42,81.26" transform="translate(-3.11 -2.45)"/><path class="cls-1" d="M525.69,81.26" transform="translate(-3.11 -2.45)"/><path class="cls-1" d="M508.55,89.76" transform="translate(-3.11 -2.45)"/><path class="cls-1" d="M508.4,81.26" transform="translate(-3.11 -2.45)"/><path class="cls-1" d="M491.68,81.26" transform="translate(-3.11 -2.45)"/><path class="cls-1" d="M491.54,89.76" transform="translate(-3.11 -2.45)"/><path class="cls-1" d="M474.53,89.76" transform="translate(-3.11 -2.45)"/><path class="cls-1" d="M474.39,81.26" transform="translate(-3.11 -2.45)"/><path class="cls-1" d="M457.66,81.26" transform="translate(-3.11 -2.45)"/><path class="cls-1" d="M440.37,81.26" transform="translate(-3.11 -2.45)"/><path class="cls-1" d="M423.65,81.26" transform="translate(-3.11 -2.45)"/><path class="cls-1" d="M423.65,89.62" transform="translate(-3.11 -2.45)"/><path class="cls-1" d="M406.36,89.62" transform="translate(-3.11 -2.45)"/><path class="cls-1" d="M389.63,81.26" transform="translate(-3.11 -2.45)"/><path class="cls-1" d="M389.63,89.62" transform="translate(-3.11 -2.45)"/><path class="cls-1" d="M358.31,89.76" transform="translate(-3.11 -2.45)"/><polyline class="cls-2" points="682.28 77.15 653.28 77.4 653.28 85.9 579.09 85.9 578.92 76.25 539.32 76.25 539.14 85.9 373.62 85.9 373.62 77.4 347.51 77.74"/><path class="cls-1" d="M11.83,182.12" transform="translate(-3.11 -2.45)"/><path class="cls-2" d="M210.4,173.48V148.11c0-.14-.14,0,0,.15l4.52.09c.08-.15,4-.31,4-.38V131c0-.08-4.25-.19-4.33-.19l-4.17,0c-.14,0,0,.14,0,0V96.94a.14.14,0,0,0-.14-.14H187.58a.14.14,0,0,0-.14.14v8.36c0,.15.14,0,0,0H170.71c-.14,0,0,.15,0,0V96.94a.14.14,0,0,0-.14-.14h-17a.14.14,0,0,0-.14.14v8.36c0,.15.14,0,0,0H136.7c-.15,0,0,.15,0,0V96.94a.15.15,0,0,0-.15-.14h-17a.14.14,0,0,0-.14.14v8.36c0,.15.14,0,0,0H102.68c-.14,0,0,.15,0,0V96.94a.14.14,0,0,0-.14-.14h-17a.14.14,0,0,0-.14.14v8.36c0,.15.14,0,0,0H68.67c-.15,0,0,.15,0,0V96.94a.15.15,0,0,0-.15-.14h-17a.15.15,0,0,0-.15.14v8.36c0,.15.15,0,0,0H34.65c-.14,0,0,.15,0,0V96.94a.14.14,0,0,0-.14-.14H11.83a.14.14,0,0,0-.14.14v33.88c0,.14.14,0,0,0L7,130.57c-.08,0-3.86.31-3.86.39v17a35.44,35.44,0,0,0,3.54.38H11.6c.23-.25.12-.07.12.07l0,25" transform="translate(-3.11 -2.45)"/><path class="cls-1" d="M187.58,182.12" transform="translate(-3.11 -2.45)"/><path class="cls-1" d="M187.44,173.62" transform="translate(-3.11 -2.45)"/><path class="cls-1" d="M170.71,173.62" transform="translate(-3.11 -2.45)"/><path class="cls-1" d="M170.71,182" transform="translate(-3.11 -2.45)"/><path class="cls-1" d="M153.56,182.12" transform="translate(-3.11 -2.45)"/><path class="cls-1" d="M153.42,173.62" transform="translate(-3.11 -2.45)"/><path class="cls-1" d="M136.7,173.62" transform="translate(-3.11 -2.45)"/><path class="cls-1" d="M136.7,182" transform="translate(-3.11 -2.45)"/><path class="cls-1" d="M119.55,182.12" transform="translate(-3.11 -2.45)"/><path class="cls-1" d="M119.41,173.62" transform="translate(-3.11 -2.45)"/><path class="cls-1" d="M102.68,173.62c0-.14-.14,0,0,0" transform="translate(-3.11 -2.45)"/><path class="cls-1" d="M102.54,182.12" transform="translate(-3.11 -2.45)"/><path class="cls-1" d="M85.39,182a.14.14,0,0,0,.14.14" transform="translate(-3.11 -2.45)"/><path class="cls-1" d="M68.67,173.62" transform="translate(-3.11 -2.45)"/><path class="cls-1" d="M68.52,182.12" transform="translate(-3.11 -2.45)"/><path class="cls-1" d="M51.52,182.12" transform="translate(-3.11 -2.45)"/><path class="cls-1" d="M51.37,173.62" transform="translate(-3.11 -2.45)"/><path class="cls-1" d="M34.65,173.62" transform="translate(-3.11 -2.45)"/><path class="cls-1" d="M34.65,182" transform="translate(-3.11 -2.45)"/><path class="cls-1" d="M11.83,182.12" transform="translate(-3.11 -2.45)"/><g id="LINE"><line class="cls-2" x1="27.3" y1="171.2" x2="27.3" y2="179.65"/></g><g id="SPLINE"><polyline class="cls-2" points="188.39 179.59 187.84 179.78 187.28 179.97 186.72 180.15 186.17 180.33 185.61 180.51 185.05 180.69 184.49 180.87 183.93 181.04 183.37 181.21 182.81 181.38 182.25 181.55 181.69 181.71 181.13 181.88 180.56 182.04 180 182.2 179.44 182.35 178.87 182.51 178.31 182.66 177.74 182.81 177.18 182.96 176.61 183.11 176.04 183.25 175.48 183.4 174.91 183.54 174.34 183.67 173.77 183.81 173.2 183.94 172.63 184.08 172.06 184.21 171.49 184.33 170.92 184.46 170.35 184.58 169.78 184.7 169.2 184.82 168.63 184.94 168.05 185.06 167.48 185.17 166.9 185.28 166.33 185.39 165.75 185.5 165.17 185.6 164.6 185.7 164.02 185.8 163.44 185.9 162.86 186 162.28 186.09 161.7 186.18 161.12 186.27 160.54 186.36 159.96 186.44 159.37 186.53 158.79 186.61 158.21 186.69 157.62 186.77 157.04 186.84 156.45 186.91 155.87 186.98 155.28 187.05 154.69 187.12 154.1 187.18 153.51 187.25 152.93 187.31 152.34 187.36 151.75 187.42 151.16 187.47 150.56 187.53 149.97 187.58 149.38 187.62 148.79 187.67 148.19 187.71 147.6 187.75 147 187.79 146.41 187.83 145.81 187.87 145.22 187.9 144.62 187.93 144.02 187.96 143.42 187.99 142.82 188.02 142.22 188.04 141.63 188.06 141.02 188.08 140.42 188.1 139.82 188.12 139.22 188.13 138.62 188.14 138.01 188.15 137.41 188.16 136.8 188.17 136.2 188.17 135.59 188.18 134.98 188.18 134.38 188.18 133.77 188.18 133.16 188.17 132.55 188.17 131.94 188.16 131.33 188.15 130.72 188.14 130.11 188.13 129.5 188.12 128.88 188.1 128.27 188.09 127.65 188.07 127.04 188.05 126.42 188.03 125.81 188 125.19 187.98 124.57 187.96 123.96 187.93 123.34 187.9 122.72 187.87 122.1 187.84 121.48 187.81 120.86 187.77 120.24 187.74 119.61 187.7 118.99 187.67 118.37 187.63 117.74 187.59 117.12 187.55 116.49 187.51 115.87 187.47 115.24 187.42 114.61 187.38 113.99 187.33 113.36 187.28 112.73 187.24 112.1 187.19 111.47 187.14 110.84 187.09 110.21 187.04 109.57 186.99 108.94 186.93 108.31 186.88 107.67 186.82 107.04 186.77 106.4 186.71 105.13 186.6 103.86 186.49 102.58 186.37 101.3 186.25 100.02 186.12 98.73 186 97.44 185.87 96.16 185.74 94.86 185.62 93.57 185.49 92.27 185.35 90.97 185.22 89.67 185.09 88.36 184.96 87.06 184.82 85.75 184.69 84.44 184.55 83.12 184.42 81.81 184.29 80.49 184.15 79.17 184.02 77.84 183.88 76.52 183.75 75.19 183.62 73.86 183.49 72.52 183.35 71.19 183.22 69.85 183.09 68.51 182.96 67.17 182.83 65.82 182.71 64.48 182.58 63.13 182.45 61.78 182.33 60.42 182.21 59.07 182.08 57.71 181.96 56.35 181.84 54.99 181.72 53.62 181.6 52.26 181.49 50.89 181.37 49.52 181.25 48.14 181.14 46.77 181.03 45.39 180.92 44.01 180.81 42.63 180.7 41.25 180.59 39.86 180.49 38.47 180.38 37.09 180.28 35.69 180.18 34.3 180.08 32.9 179.98 31.5 179.88 30.11 179.78 28.7 179.69 27.3 179.59"/></g><g id="LINE-2" data-name="LINE"><line class="cls-2" x1="188.39" y1="179.65" x2="188.39" y2="171.2"/></g><line class="cls-2" x1="8.61" y1="171.08" x2="27.46" y2="171.04"/><line class="cls-2" x1="188.68" y1="171.17" x2="207.52" y2="170.86"/><path class="cls-1" d="M237.12,182.13" transform="translate(-3.11 -2.45)"/><path class="cls-2" d="M435.69,173.49V148.12c0-.14-.15,0,0,.13l4.54,0a28.36,28.36,0,0,0,4-.29V131c0-.08-4.16-.35-4.24-.35l-4.26.21c-.15,0,0,.14,0,0V97a.15.15,0,0,0-.15-.14H412.87c-.08,0-.29,3.61-.29,3.69l.15,4.81c0,.15.14,0,0,0H396c-.14,0,0,.15,0,0l.12-4.81c0-.08-.18-3.69-.26-3.69h-17c-.08,0-.21,3.42-.21,3.5l.07,5c0,.15.14,0,0,0H362c-.15,0,0,.15,0,0l0-4.85c0-.08-.11-3.65-.19-3.65h-17c-.08,0-.21,3.53-.21,3.61l.06,4.89c0,.15.15,0,0,0H328c-.14,0,0,.15,0,0l0-4.77c0-.08-.11-3.73-.19-3.73h-17c-.08,0-.24,3.8-.24,3.88l.1,4.62c0,.15.14,0,0,0H294c-.14,0,0,.15,0,0l.13-4.66c0-.08-.19-3.84-.27-3.84h-17c-.07,0-.24,3.8-.24,3.88l.1,4.62c0,.15.14,0,0,0H259.94c-.14,0,0,.15,0,0l.09-5.11c0-.08-.15-3.39-.23-3.39H237.12A.14.14,0,0,0,237,97v33.88c0,.14.14,0,0,0l-4.82-.22c-.08,0-3.69.28-3.69.36l.05,17.19c0,.08,3.83.05,3.79.19l4.55-.09c.26-.14.12-.28.12-.14v25.37" transform="translate(-3.11 -2.45)"/><path class="cls-1" d="M412.87,182.13" transform="translate(-3.11 -2.45)"/><path class="cls-1" d="M412.73,173.63" transform="translate(-3.11 -2.45)"/><path class="cls-1" d="M396,173.63" transform="translate(-3.11 -2.45)"/><path class="cls-1" d="M396,182" transform="translate(-3.11 -2.45)"/><path class="cls-1" d="M378.85,182.13" transform="translate(-3.11 -2.45)"/><path class="cls-1" d="M378.71,173.63" transform="translate(-3.11 -2.45)"/><path class="cls-1" d="M362,173.63" transform="translate(-3.11 -2.45)"/><path class="cls-1" d="M362,182" transform="translate(-3.11 -2.45)"/><path class="cls-1" d="M344.84,182.13" transform="translate(-3.11 -2.45)"/><path class="cls-1" d="M344.69,173.63" transform="translate(-3.11 -2.45)"/><path class="cls-1" d="M328,173.63c0-.14-.14,0,0,0" transform="translate(-3.11 -2.45)"/><path class="cls-1" d="M327.83,182.13" transform="translate(-3.11 -2.45)"/><path class="cls-1" d="M310.68,182a.14.14,0,0,0,.14.14" transform="translate(-3.11 -2.45)"/><path class="cls-1" d="M294,173.63" transform="translate(-3.11 -2.45)"/><path class="cls-1" d="M293.81,182.13" transform="translate(-3.11 -2.45)"/><path class="cls-1" d="M276.8,182.13" transform="translate(-3.11 -2.45)"/><path class="cls-1" d="M276.66,173.63" transform="translate(-3.11 -2.45)"/><path class="cls-1" d="M259.94,173.63" transform="translate(-3.11 -2.45)"/><path class="cls-1" d="M259.94,182" transform="translate(-3.11 -2.45)"/><path class="cls-1" d="M237.12,182.13" transform="translate(-3.11 -2.45)"/><g id="LINE-3" data-name="LINE"><line class="cls-2" x1="252.59" y1="171.21" x2="252.59" y2="179.66"/></g><g id="SPLINE-2" data-name="SPLINE"><polyline class="cls-2" points="413.68 179.6 413.13 179.79 412.57 179.98 412.01 180.16 411.46 180.34 410.9 180.52 410.34 180.7 409.78 180.88 409.22 181.05 408.66 181.22 408.1 181.39 407.54 181.56 406.98 181.72 406.42 181.89 405.85 182.05 405.29 182.21 404.73 182.37 404.16 182.52 403.6 182.67 403.03 182.82 402.47 182.97 401.9 183.12 401.33 183.26 400.77 183.41 400.2 183.55 399.63 183.69 399.06 183.82 398.49 183.96 397.92 184.09 397.35 184.22 396.78 184.34 396.21 184.47 395.64 184.59 395.06 184.72 394.49 184.84 393.92 184.95 393.34 185.07 392.77 185.18 392.19 185.29 391.62 185.4 391.04 185.51 390.46 185.61 389.88 185.71 389.31 185.81 388.73 185.91 388.15 186.01 387.57 186.1 386.99 186.19 386.41 186.28 385.83 186.37 385.24 186.46 384.66 186.54 384.08 186.62 383.5 186.7 382.91 186.78 382.32 186.85 381.74 186.92 381.15 187 380.57 187.06 379.98 187.13 379.39 187.19 378.8 187.26 378.21 187.32 377.63 187.38 377.04 187.43 376.44 187.49 375.85 187.54 375.26 187.59 374.67 187.63 374.08 187.68 373.48 187.72 372.89 187.77 372.29 187.81 371.7 187.84 371.1 187.88 370.51 187.91 369.91 187.94 369.31 187.97 368.71 188 368.11 188.03 367.51 188.05 366.91 188.07 366.31 188.09 365.71 188.11 365.11 188.13 364.51 188.14 363.9 188.15 363.3 188.16 362.7 188.17 362.09 188.18 361.49 188.19 360.88 188.19 360.27 188.19 359.67 188.19 359.06 188.19 358.45 188.18 357.84 188.18 357.23 188.17 356.62 188.16 356.01 188.15 355.4 188.14 354.78 188.13 354.17 188.11 353.56 188.1 352.94 188.08 352.33 188.06 351.71 188.04 351.1 188.01 350.48 187.99 349.86 187.97 349.25 187.94 348.63 187.91 348.01 187.88 347.39 187.85 346.77 187.82 346.15 187.78 345.52 187.75 344.9 187.72 344.28 187.68 343.66 187.64 343.03 187.6 342.41 187.56 341.78 187.52 341.16 187.48 340.53 187.43 339.9 187.39 339.27 187.34 338.65 187.3 338.02 187.25 337.39 187.2 336.76 187.15 336.13 187.1 335.5 187.05 334.86 187 334.23 186.94 333.6 186.89 332.96 186.84 332.33 186.78 331.69 186.72 330.42 186.61 329.15 186.5 327.87 186.38 326.59 186.26 325.31 186.13 324.02 186.01 322.73 185.88 321.44 185.75 320.15 185.63 318.86 185.5 317.56 185.37 316.26 185.23 314.96 185.1 313.65 184.97 312.35 184.83 311.04 184.7 309.73 184.56 308.41 184.43 307.09 184.3 305.77 184.16 304.45 184.03 303.13 183.9 301.8 183.76 300.48 183.63 299.14 183.5 297.81 183.37 296.48 183.23 295.14 183.1 293.8 182.97 292.46 182.84 291.11 182.72 289.76 182.59 288.42 182.46 287.06 182.34 285.71 182.22 284.36 182.09 283 181.97 281.64 181.85 280.28 181.73 278.91 181.61 277.55 181.5 276.18 181.38 274.81 181.26 273.43 181.15 272.06 181.04 270.68 180.93 269.3 180.82 267.92 180.71 266.54 180.6 265.15 180.5 263.76 180.39 262.37 180.29 260.98 180.19 259.59 180.09 258.19 179.99 256.79 179.89 255.39 179.79 253.99 179.7 252.59 179.6"/></g><g id="LINE-4" data-name="LINE"><line class="cls-2" x1="413.68" y1="179.66" x2="413.68" y2="171.21"/></g><line class="cls-2" x1="233.9" y1="171.1" x2="252.75" y2="171.05"/><line class="cls-2" x1="413.97" y1="171.18" x2="432.81" y2="170.87"/><path class="cls-3" d="M85,133.53c.12,4.52.16,9.88.16,16.13h.12c.83-5.3,1.94-11.31,2.82-15.71l2.66-14h5.6l2.22,14c.72,4.28,1.51,10.23,2.15,15.71h.08c.15-5.65.27-11.61.39-16.13l.44-14.41h6.59l-1.67,40.12H96.94L95.2,148.41c-.76-4.4-1.55-9.76-2.11-14.64H93c-.75,4.88-1.63,10.53-2.42,14.76l-2,10.71H79.11l-1.35-40.12h6.95Z" transform="translate(-3.11 -2.45)"/><path class="cls-3" d="M67.83,159.24V144.36h-8.7v14.88H51.94V119.12h7.19V135h8.7V119.12H75v40.12Z" transform="translate(-3.11 -2.45)"/><path class="cls-3" d="M41.48,150.2h6.83v9h-21v-9h7V119.12h7.19Z" transform="translate(-3.11 -2.45)"/><rect class="cls-2" x="451.74" y="94.32" width="229.61" height="92.54"/><path class="cls-4" d="M651.09,141.8H536c0-.75-.08-1.47-.12-2.18a24,24,0,0,0-.61-4,26.45,26.45,0,0,0-2.07-5.85,24.83,24.83,0,0,0-2.89-4.66,27.62,27.62,0,0,0-2.53-2.87,29.63,29.63,0,0,0-5.31-4.06,27.68,27.68,0,0,0-5.83-2.6,26.47,26.47,0,0,0-3.84-.91,24.8,24.8,0,0,0-4.87-.37c-1,0-2,.15-3.07.25a24,24,0,0,0-5.5,1.27,26.31,26.31,0,0,0-6.52,3.3,23.45,23.45,0,0,0-2.88,2.28c-.52.49-1.06,1-1.55,1.49a26.58,26.58,0,0,0-3.62,4.76,28.12,28.12,0,0,0-2.39,5.09,24,24,0,0,0-1.18,4.7c-.15,1.15-.26,2.29-.36,3.44a20.54,20.54,0,0,0,.15,3.84,27.12,27.12,0,0,0,4.58,12.53c.66.93,1.37,1.81,2.09,2.68a20.67,20.67,0,0,0,2.85,2.84,27.18,27.18,0,0,0,6.18,4,24.45,24.45,0,0,0,4.31,1.58c1.11.28,2.24.55,3.37.72a28.75,28.75,0,0,0,3.21.27,25.33,25.33,0,0,0,3-.07,27.62,27.62,0,0,0,10.36-3,25.64,25.64,0,0,0,4.5-2.91l2-1.67H657.58q-3.23-10-6.46-19.86,3.25-10,6.5-20H528c-.11,0-.22,0-.33,0" transform="translate(-3.11 -2.45)"/><path class="cls-4" d="M522.76,146.33c1.36-1.35,2.71-2.72,4.08-4.06a4.44,4.44,0,0,0,1.4-3.94,6,6,0,0,0-1.86-3.55c-2.61-2.57-5.2-5.17-7.79-7.77a5.41,5.41,0,0,0-2.84-1.56,1.15,1.15,0,0,1-.5-.26,3.24,3.24,0,0,0-2.29-.71,3.44,3.44,0,0,0-3.07,2.14c-.24.53-.45,1.06-.71,1.67-.17-.35-.32-.63-.45-.91a4.48,4.48,0,0,0-3.15-2.5,4.34,4.34,0,0,0-2.81.32c-.68.31-1.34.65-2,1a2.73,2.73,0,0,1-.75.17,4.06,4.06,0,0,0-2.45,1.16q-4,3.92-7.88,7.88a4.31,4.31,0,0,0-1.24,3,4.6,4.6,0,0,0,1.47,3.54c1.06,1.07,2.13,2.13,3.21,3.21a3,3,0,0,0-.16,2.64,3,3,0,0,0,2.39,1.86,3.24,3.24,0,0,0,.55,2.81,3.09,3.09,0,0,0,2.8,1.12A3.22,3.22,0,0,0,500,156a3.19,3.19,0,0,0,2.52.51,3.07,3.07,0,0,0,4.59,2.52l1.21,1.27a2.61,2.61,0,0,0,2.28.78,1.77,1.77,0,0,0,.63-.19,5.31,5.31,0,0,0,2.05-2,1.65,1.65,0,0,0,.07-.2,7,7,0,0,0,1.29.25,2.36,2.36,0,0,0,1.49-.51,5.91,5.91,0,0,0,1.42-1.53c.11-.2.19-.42.28-.62a2.45,2.45,0,0,0,2.26-.37,8.94,8.94,0,0,0,1.39-1.43,2.37,2.37,0,0,0,0-2.63c.26-.29.52-.58.79-.86s.43-.46.66-.66a2.6,2.6,0,0,0,0-3.68,2.26,2.26,0,0,1-.2-.26" transform="translate(-3.11 -2.45)"/><path class="cls-4" d="M567.19,154.07a5.08,5.08,0,0,1-3.11.14,2.86,2.86,0,0,1-2.05-2.75,3.82,3.82,0,0,1,.39-2.09,2.81,2.81,0,0,1,2.46-1.51,5.4,5.4,0,0,1,2.39.37l.59-2.33a3.3,3.3,0,0,0-1.4-.42,8.65,8.65,0,0,0-3.47.19,5.46,5.46,0,0,0-3.61,3,5.81,5.81,0,0,0-.49,2.09,5.41,5.41,0,0,0,2,5,5.63,5.63,0,0,0,2.92,1.08,8.33,8.33,0,0,0,3.54-.29,3.29,3.29,0,0,0,.33-.16l-.46-2.29" transform="translate(-3.11 -2.45)"/><path class="cls-4" d="M575.8,148.88l0,.78h-3.61v-4.09h-3v11.1h3V152.3h3.59v4.37h3v-11.1h-2.94a3.08,3.08,0,0,0,0,.33c0,.89,0,1.77,0,2.65,0,.1,0,.2,0,.3" transform="translate(-3.11 -2.45)"/><path class="cls-4" d="M635.92,145.67c.35.67.68,1.35,1,2,.75,1.41,1.51,2.82,2.24,4.24a1.5,1.5,0,0,1,.17.69c0,1.34,0,2.69,0,4h3v-1c0-1.07,0-2.14,0-3.21a1.87,1.87,0,0,1,.39-1c.8-1.47,1.62-2.92,2.44-4.37.25-.44.51-.86.76-1.29,0,0,0-.09,0-.17h-3.31c-.53,1.45-1.07,2.94-1.61,4.44l-.06,0-.38-1.05c-.4-1.06-.79-2.12-1.2-3.18a.36.36,0,0,0-.39-.27c-.93,0-1.85,0-2.78,0a1.18,1.18,0,0,0-.3.1" transform="translate(-3.11 -2.45)"/><path class="cls-4" d="M587.79,152.29c-.16-.33-.31-.67-.47-1-.63-1.27-1.25-2.54-1.89-3.81-.29-.58-.59-1.14-.89-1.72a.36.36,0,0,0-.36-.23H581l-.1.05v11.06h2.72v-.56c0-1.19,0-2.38,0-3.57,0-1-.06-1.9-.09-2.85,0-.09,0-.19,0-.29" transform="translate(-3.11 -2.45)"/><path class="cls-4" d="M620,130.26v.89c0,1.46,0,2.91.07,4.37,0,.93.08,1.87.12,2.82H623c-.18-3.56-.35-7.11-.53-10.68h-3.8c-.08.25-.17.53-.25.81-.41,1.53-.81,3.07-1.22,4.6l-.3,1.12" transform="translate(-3.11 -2.45)"/><path class="cls-4" d="M616.92,134.36c-.52-2.23-1-4.46-1.55-6.7h-3.93c-.22,3.57-.43,7.12-.65,10.68h2.66l0-.31c.06-1.49.13-3,.19-4.47,0-.65.05-1.3.07-1.95,0-.25,0-.5.07-.76" transform="translate(-3.11 -2.45)"/><path class="cls-4" d="M544.75,134.36l-1.54-6.68h-3.93c0,.42-.07.85-.09,1.29-.07,1.05-.14,2.11-.2,3.17,0,.8-.09,1.59-.14,2.38-.06,1-.13,1.94-.19,2.92,0,.29,0,.59,0,.9h2.63l.06-.94c0-1,.06-1.92.1-2.88s.08-2.2.13-3.3c0-.08.11-.15.16-.22" transform="translate(-3.11 -2.45)"/><path class="cls-4" d="M583.68,149.38c.11.21.23.41.33.63l2.22,4.49,1.08,2.17h3.17v-11.1h-2.69c0,1.42,0,2.81,0,4.2,0,.74.09,1.48.13,2.22a1.54,1.54,0,0,1,0,.3" transform="translate(-3.11 -2.45)"/><path class="cls-4" d="M642.18,134.33c-.47-1.06-.92-2.14-1.43-3.18s-1.21-2.32-1.82-3.49h-3.4v10.67h2.63c.05-2.35,0-4.7-.08-7.05" transform="translate(-3.11 -2.45)"/><path class="cls-4" d="M515.28,128a2.59,2.59,0,0,0-.4-1.19,2.1,2.1,0,0,0-2.18-.85,2.12,2.12,0,0,0-1.59,1.41l-1.56,3.84c-.51,1.26-1.05,2.53-1.55,3.8a2.12,2.12,0,0,0,4,1.49c.5-1.17,1-2.36,1.46-3.54.58-1.43,1.15-2.87,1.71-4.3a3.38,3.38,0,0,0,.14-.63" transform="translate(-3.11 -2.45)"/><path class="cls-4" d="M547.83,130.92a.61.61,0,0,1,0,.13l0,1.59c0,1.59.06,3.17.1,4.76,0,.3,0,.6.08.93h2.78c-.17-3.55-.35-7.1-.53-10.67h-3.81c-.23.84-.48,1.66-.7,2.5-.33,1.27-.64,2.56-1,3.83a.72.72,0,0,1-.09.2" transform="translate(-3.11 -2.45)"/><path class="cls-4" d="M566.23,132.18v-4.52h-2.88v10.67h2.85a23,23,0,0,0,0-2.35,2.2,2.2,0,0,1,.9-1.9l2.22,4.26h3.36l-1.23-2.13-1.65-2.88a8.37,8.37,0,0,0-.48-.82.45.45,0,0,1,0-.63q1.49-1.95,2.95-3.91a1.71,1.71,0,0,0,.13-.23" transform="translate(-3.11 -2.45)"/><path class="cls-4" d="M619.93,130.55l0,.23h0c-.69,2.44-1.39,4.88-2.08,7.33h-2.27c-.15-.57-.31-1.17-.45-1.77-.29-1.26-.58-2.53-.86-3.8-.1-.43-.17-.86-.27-1.29a1.66,1.66,0,0,0-.13-.27" transform="translate(-3.11 -2.45)"/><path class="cls-4" d="M547.73,130.89c-.1.3-.21.61-.3.92l-1.23,4.4-.49,1.69-.09.21h-2.24c-.13-.49-.26-1-.39-1.54-.3-1.25-.6-2.51-.89-3.77-.13-.58-.25-1.17-.37-1.75" transform="translate(-3.11 -2.45)"/><path class="cls-4" d="M638.21,131.25c1,2.43,2.31,4.73,3.49,7.09h3V127.66h-2.64V128c0,1.52,0,3,0,4.56,0,.48.09,1,.13,1.42,0,.24,0,.47,0,.7" transform="translate(-3.11 -2.45)"/><path class="cls-4" d="M517.07,142.83,514.9,145l4,4,2.19-2.18s0,0,0,0l-4-4" transform="translate(-3.11 -2.45)"/><path class="cls-4" d="M628.94,129.73v.35a22.81,22.81,0,0,0-.9,3.63H630c-.14-.56-.28-1.1-.42-1.63s-.28-1.17-.43-1.76a.93.93,0,0,0-.1-.2" transform="translate(-3.11 -2.45)"/><path class="cls-4" d="M572.49,127.68l-1.22,0H569l-2.52,4.17a.8.8,0,0,1-.13.13" transform="translate(-3.11 -2.45)"/><path class="cls-4" d="M513.36,152.25l.76.7,1.22,1.22-2.27,2.13-1.53-1.53a5.39,5.39,0,0,0,1.79-2.48" transform="translate(-3.11 -2.45)"/><path class="cls-4" d="M522.1,148,520,150.21l.58.44c.44-.44.95-.93,1.44-1.44a1.18,1.18,0,0,0,.2-1.22" transform="translate(-3.11 -2.45)"/><path class="cls-4" d="M556.76,129.73c-.08.39-.17.79-.26,1.19l-.63,2.58a1.46,1.46,0,0,0,0,.21h1.91c-.22-.9-.43-1.78-.65-2.66-.06-.24-.13-.49-.2-.73s-.09-.2-.13-.3" transform="translate(-3.11 -2.45)"/><path class="cls-4" d="M509.79,159.63a1,1,0,0,0,1.12-.23,12.6,12.6,0,0,0,.89-.9,1.12,1.12,0,0,0,.11-1.13l-2.19,2.13" transform="translate(-3.11 -2.45)"/><path class="cls-4" d="M518.19,154.87a1.24,1.24,0,0,0,1.36-.4c.2-.2.41-.39.6-.6a1,1,0,0,0,.12-1.21l-2.08,2.08" transform="translate(-3.11 -2.45)"/><path class="cls-4" d="M514.29,157.45a1.42,1.42,0,0,0,1.36-.56c.29-.34.69-.59.72-1.1,0-.13,0-.26,0-.4l-.09,0-2,1.95" transform="translate(-3.11 -2.45)"/><path class="cls-4" d="M509.26,144l1.24-1.18,2.25,2.25-1.31,1.31" transform="translate(-3.11 -2.45)"/><path class="cls-4" d="M511.31,146.4a3.06,3.06,0,0,0-1.89-2.25.34.34,0,0,0-.1,0" transform="translate(-3.11 -2.45)"/><path class="cls-4" d="M541.65,131a2.38,2.38,0,0,0,.05-.26c0-.11,0-.23,0-.34h-.11v.33" transform="translate(-3.11 -2.45)"/><path class="cls-4" d="M528.85,160.29l-.86.86" transform="translate(-3.11 -2.45)"/><path class="cls-4" d="M535.94,142.69v.67" transform="translate(-3.11 -2.45)"/><path class="cls-4" d="M531.64,156.65l-.47.67" transform="translate(-3.11 -2.45)"/><path class="cls-4" d="M547.86,130.26v.68c-.17-.13-.23-.24-.1-.39" transform="translate(-3.11 -2.45)"/><path class="cls-4" d="M530.25,158.64l-.4.46" transform="translate(-3.11 -2.45)"/><path class="cls-4" d="M638.11,131l-.09.26h.12v-.2" transform="translate(-3.11 -2.45)"/><path class="cls-4" d="M535,149.24l-.07.34" transform="translate(-3.11 -2.45)"/><path class="cls-4" d="M613.84,130.46v.33" transform="translate(-3.11 -2.45)"/><path class="cls-4" d="M533.62,153l-.13.33" transform="translate(-3.11 -2.45)"/><path class="cls-4" d="M587.82,152.52l-.05-.26c.4.14-.17.43.22.57l0-.21" transform="translate(-3.11 -2.45)"/><path class="cls-4" d="M535.74,145.41v.26" transform="translate(-3.11 -2.45)"/><path class="cls-4" d="M613.81,130.39a.29.29,0,0,0,0,.4" transform="translate(-3.11 -2.45)"/><path class="cls-4" d="M583.61,149.11l.1.28c-.34,0-.08-.25-.16-.34" transform="translate(-3.11 -2.45)"/><path class="cls-4" d="M533.82,152.49l-.07.19" transform="translate(-3.11 -2.45)"/><path class="cls-4" d="M529.72,159.3l-.2.2" transform="translate(-3.11 -2.45)"/><path class="cls-4" d="M527.8,161.35l-.2.2" transform="translate(-3.11 -2.45)"/><path class="cls-4" d="M532,156.12l-.14.2" transform="translate(-3.11 -2.45)"/><path class="cls-4" d="M532.17,155.79l-.14.2" transform="translate(-3.11 -2.45)"/><path class="cls-4" d="M532.36,155.46l-.13.2" transform="translate(-3.11 -2.45)"/><path class="cls-4" d="M529.25,159.83l-.2.2" transform="translate(-3.11 -2.45)"/><path class="cls-4" d="M532.7,154.87l-.14.2" transform="translate(-3.11 -2.45)"/><path class="cls-4" d="M530.44,158.37l-.13.14" transform="translate(-3.11 -2.45)"/><path class="cls-4" d="M504.36,126.22a4,4,0,0,0-1.43.53l2.51,2.32,2-.94a3,3,0,0,0-3.05-1.91" transform="translate(-3.11 -2.45)"/><path class="cls-4" d="M550.37,145.54c-.19.05-.13.21-.13.33v10.8h7.42v-2.43h-4.42v-2h3.94v-2.43h-3.94V148h4.19v-2.48h-7" transform="translate(-3.11 -2.45)"/><path class="cls-4" d="M510.08,150.1a2.34,2.34,0,0,0-1.25.83c-.92.91-1.81,1.83-2.72,2.75-.47.47-.94.94-1.43,1.38a2.1,2.1,0,0,0-.71,1.2,1.64,1.64,0,0,0,.75,1.52,1.59,1.59,0,0,0,2-.23c1.56-1.59,3.13-3.17,4.73-4.73a1.59,1.59,0,0,0-.67-2.68,4.12,4.12,0,0,0-.62,0" transform="translate(-3.11 -2.45)"/><path class="cls-4" d="M513.79,146.13l-2.15,2.11,5.38,5.49,2.23-2.23-.49-.47-4.61-4.6-.33-.3" transform="translate(-3.11 -2.45)"/><path class="cls-4" d="M540.24,145.54c0,.08-.12.15-.12.23,0,.7,0,1.39,0,2.08a1,1,0,0,0,.06.22h2.76v8.58h3v-8.58h2.89v-2.53h-8.56" transform="translate(-3.11 -2.45)"/><path class="cls-4" d="M630.46,145.47a10.35,10.35,0,0,0-2.12.49,5.23,5.23,0,0,0-3.46,4.08,6,6,0,0,0,.52,4,4.71,4.71,0,0,0,2.71,2.32,8.61,8.61,0,0,0,2.42.43,13.64,13.64,0,0,0,4.33-.59v-6.11h-4.32v2.3H632v1.9a2.48,2.48,0,0,1-1.17.11A2.94,2.94,0,0,1,628,152a3.61,3.61,0,0,1,.43-2.81,2.83,2.83,0,0,1,2-1.22,6.6,6.6,0,0,1,3.21.29,1.43,1.43,0,0,0,.26.06l.59-2.34a9.54,9.54,0,0,0-4-.53" transform="translate(-3.11 -2.45)"/><path class="cls-4" d="M508.16,145.41a1.91,1.91,0,0,0-1.06.59c-2.12,2.14-4.24,4.28-6.4,6.38a1.6,1.6,0,0,0,1.9,2.55,2.25,2.25,0,0,0,.4-.36l6.36-6.35a1.71,1.71,0,0,0,.56-1.22,1.61,1.61,0,0,0-1.59-1.59h-.13" transform="translate(-3.11 -2.45)"/><path class="cls-4" d="M616.56,143.82l-.77.13a5.17,5.17,0,0,0-3.63,2.39,6.53,6.53,0,0,0-1,4.13,5.94,5.94,0,0,0,1.74,4,5.17,5.17,0,0,0,3,1.4,6.69,6.69,0,0,0,3.14-.31,5.15,5.15,0,0,0,3.37-3.84,7.11,7.11,0,0,0-.37-4.85,5,5,0,0,0-3.79-2.91,16,16,0,0,0-1.69-.14" transform="translate(-3.11 -2.45)"/><path class="cls-4" d="M510.45,155.89l-2.15,2.25.33.33,2.21-2.21-.36-.37" transform="translate(-3.11 -2.45)"/><path class="cls-4" d="M598,143.82c-.45.09-.91.15-1.36.27a5.07,5.07,0,0,0-3.18,2.44,6.77,6.77,0,0,0-.41,6,4.91,4.91,0,0,0,3.89,3.25,6.57,6.57,0,0,0,4.13-.48,4.9,4.9,0,0,0,2.4-2.53,7.52,7.52,0,0,0,.39-4.77,5.25,5.25,0,0,0-2.72-3.59,4.65,4.65,0,0,0-2-.55c-.38,0-.75,0-1.13-.06" transform="translate(-3.11 -2.45)"/><path class="cls-4" d="M598,146.33a2.61,2.61,0,0,0-2,2.29,5.64,5.64,0,0,0,.19,3.2,2.25,2.25,0,0,0,1.49,1.52,2.06,2.06,0,0,0,2.52-1.09,5.19,5.19,0,0,0,.49-3.1,4,4,0,0,0-.62-1.83,2.13,2.13,0,0,0-2.06-1" transform="translate(-3.11 -2.45)"/><path class="cls-4" d="M505.18,141.83a2.46,2.46,0,0,0-1.19.73l-6.69,6.68a1.88,1.88,0,0,0-.63,1.36,1.66,1.66,0,0,0,1.06,1.46,1.49,1.49,0,0,0,1.62-.37q3.61-3.58,7.19-7.18a1.52,1.52,0,0,0,.33-1.71,1.66,1.66,0,0,0-1.49-1h-.16" transform="translate(-3.11 -2.45)"/><path class="cls-4" d="M500.55,140.05a2.27,2.27,0,0,0-1.2.72c-1.56,1.58-3.13,3.14-4.69,4.7a1.57,1.57,0,0,0-.11,2.19,1.48,1.48,0,0,0,1.66.45,1.24,1.24,0,0,0,.46-.29l4-4a14,14,0,0,1,1.23-1.21,1.5,1.5,0,0,0-.34-2.38,3.35,3.35,0,0,0-1-.21" transform="translate(-3.11 -2.45)"/><path class="cls-4" d="M513.76,139.59l-2.12,2.22,2.17,2.16,2.22-2.22-.45-.44L514,139.75a1.88,1.88,0,0,0-.23-.16" transform="translate(-3.11 -2.45)"/><path class="cls-4" d="M616.62,146.33a2.61,2.61,0,0,0-2,2.25,5.68,5.68,0,0,0,.21,3.34,2.14,2.14,0,0,0,1.39,1.39,2,2,0,0,0,2.48-.86,4.23,4.23,0,0,0,.62-2,5.31,5.31,0,0,0-.36-2.58,2.25,2.25,0,0,0-1.65-1.48,4.92,4.92,0,0,0-.67,0" transform="translate(-3.11 -2.45)"/><path class="cls-4" d="M648.34,131.32a1.49,1.49,0,0,0-1.29,1,1.78,1.78,0,0,0,.36,1.82,1.72,1.72,0,0,0,1.89.23,1.55,1.55,0,0,0,.76-1.69,1.48,1.48,0,0,0-1.69-1.35" transform="translate(-3.11 -2.45)"/><path class="cls-4" d="M584.57,131.32a1.52,1.52,0,0,0-1.29,1,1.8,1.8,0,0,0,.37,1.82,1.71,1.71,0,0,0,1.88.23,1.57,1.57,0,0,0,.77-1.69,1.48,1.48,0,0,0-1.69-1.35" transform="translate(-3.11 -2.45)"/><path class="cls-4" d="M605.66,147.62c0,.08-.12.16-.12.24,0,.34,0,.68,0,1v9.87h7.22v-2.48h-4.22v-8.65H605.7" transform="translate(-3.11 -2.45)"/><path class="cls-4" d="M598.21,147.79c-.73.23-.9.86-1,1.49a3,3,0,0,0,.22,1.92,1.79,1.79,0,0,0,.2.39.74.74,0,0,0,1.32-.07,3.13,3.13,0,0,0,.4-2.18,2.3,2.3,0,0,0-.49-1.22.78.78,0,0,0-.6-.33" transform="translate(-3.11 -2.45)"/><path class="cls-4" d="M508,129.46l-1.49.7.66.66,1.06-1.06-.2-.3" transform="translate(-3.11 -2.45)"/><path class="cls-4" d="M616.82,147.79a1.6,1.6,0,0,0-1,1.42,3.35,3.35,0,0,0,.16,1.88,1.81,1.81,0,0,0,.37.63c.42.43,1,.28,1.24-.26a3.27,3.27,0,0,0,.07-3,.89.89,0,0,0-.86-.63" transform="translate(-3.11 -2.45)"/><path class="cls-4" d="M500.32,127.71a3.48,3.48,0,0,0-2.12,1.12c-2.48,2.5-5,5-7.45,7.48a3.07,3.07,0,0,0-.06,4.36c1.05,1.12,2.18,2.17,3.27,3.25a.54.54,0,0,0,.13.06l.3-.29,4-4a3.2,3.2,0,0,1,2.08-1,3,3,0,0,1,2.19.7,3.44,3.44,0,0,1,1,1.55,3.16,3.16,0,0,1,2.7-.3,3.1,3.1,0,0,1,2,2.21l4.32-4.32-.12-.16a.89.89,0,0,0-.24.13,3.57,3.57,0,0,1-5.67-4c.2-.48.4-1,.56-1.36-.7-.73-1.35-1.43-2-2.11s-1.42-1.39-2.11-2.12a3.24,3.24,0,0,0-2.75-1.12" transform="translate(-3.11 -2.45)"/><path class="cls-4" d="M627.18,127.64c-.07.19-.17.37-.23.57-.73,2.52-1.45,5-2.18,7.57l-.76,2.55h3l.6-2.43h2.76l.68,2.44h3.12c-1.06-3.57-2.12-7.12-3.19-10.7h-3.76" transform="translate(-3.11 -2.45)"/><path class="cls-4" d="M600,127.64c0,.08-.13.16-.13.23,0,2,0,4,0,6.06a5.71,5.71,0,0,0,.6,2.58,3.58,3.58,0,0,0,2.79,1.94,6.41,6.41,0,0,0,2.72-.12,3.7,3.7,0,0,0,2.8-2.82,8.46,8.46,0,0,0,.23-1.95c0-1.87,0-3.74,0-5.62v-.28h-2.91v.41c0,2,0,4,0,6.06a2.44,2.44,0,0,1-.54,1.66,1.59,1.59,0,0,1-2.53-.47,3.79,3.79,0,0,1-.26-1.33v-6.35h-2.75" transform="translate(-3.11 -2.45)"/><path class="cls-4" d="M588.84,127.64c-.18,0-.13.16-.13.27v10.42h2.9v-4.2h3.48v4.2H598V127.68h-2.9v3.88h-3.43v-3.92h-2.76" transform="translate(-3.11 -2.45)"/><path class="cls-4" d="M573.75,127.64c-.28,0-.15.29-.15.4,0,.85,0,1.7,0,2.55s0,1.72,0,2.58,0,1.89,0,2.84v2.19a.6.6,0,0,0,0,.14h7.15V136h-4.25v-2h3.77v-2.36h-3.79V130h4v-2.34h-6.77" transform="translate(-3.11 -2.45)"/><path class="cls-4" d="M555.08,127.64c-.3.13-.26.44-.32.67-.74,2.48-1.45,5-2.17,7.47-.24.84-.49,1.68-.74,2.55h3l.59-2.43h2.76l.67,2.43H562l-3.19-10.69h-3.7" transform="translate(-3.11 -2.45)"/><path class="cls-4" d="M516.7,127.35a1.43,1.43,0,0,0,0,.29,4.62,4.62,0,0,1-.49,2.39c-.59,1.39-1.15,2.8-1.73,4.2l-1,2.41-.1.28,8.31,8.39a2.54,2.54,0,0,0,.23-.2L526,141a2.8,2.8,0,0,0,.79-2.35,4.24,4.24,0,0,0-1.32-2.68l-7.68-7.67c-.34-.34-.73-.63-1.09-.93" transform="translate(-3.11 -2.45)"/><path class="cls-3" d="M513.32,32.13l3.4,13.4-4.87,22.14h-8Zm9.06-5.24,11.56,40.78h-8.12L515.39,26.89Z" transform="translate(-3.11 -2.45)"/><path class="cls-3" d="M470.86,39.62a24.51,24.51,0,0,1,2.51-6.82A14.44,14.44,0,0,1,477.61,28a10.31,10.31,0,0,1,6.12-1.84h.84v7.75A8.68,8.68,0,0,0,481,35.51a7.23,7.23,0,0,0-2,2.77,13.28,13.28,0,0,0-.95,3.82,44,44,0,0,0-.23,4.83c0,1.71.05,3.36.16,5a16,16,0,0,0,.85,4.31,7.92,7.92,0,0,0,2,3.18,6.44,6.44,0,0,0,3.7,1.54v7.81q-7.54-.82-11-6.38T470,47.45A37,37,0,0,1,470.86,39.62Zm17.35-13.43q.8,0,1.56,0a8,8,0,0,1,1.51.21,11.2,11.2,0,0,1,5.24,2.7A16.25,16.25,0,0,1,500.06,34a24.88,24.88,0,0,1,2,6.32,38.91,38.91,0,0,1,.64,7.13,36,36,0,0,1-.9,8.22,21.86,21.86,0,0,1-2.69,6.7,13.94,13.94,0,0,1-4.53,4.54,12.73,12.73,0,0,1-6.42,1.81V60.91a6.08,6.08,0,0,0,3.49-1.54,8.56,8.56,0,0,0,2.06-3.09,14.92,14.92,0,0,0,1-4.11,44.76,44.76,0,0,0,.24-4.72q0-2.67-.21-4.92a13.87,13.87,0,0,0-.92-4,7.65,7.65,0,0,0-2-2.88,8.56,8.56,0,0,0-3.59-1.75Z" transform="translate(-3.11 -2.45)"/><path class="cls-3" d="M435.68,34.06a13.35,13.35,0,0,1,2.62-4.23,10.48,10.48,0,0,1,3.8-2.53A24.76,24.76,0,0,1,447.24,26v7.69h.05a5.06,5.06,0,0,0-3.87,2.21,12,12,0,0,0-1.51,5.25l-7.83-.65A28,28,0,0,1,435.68,34.06ZM442.1,54.5A12,12,0,0,0,443.82,59a4.73,4.73,0,0,0,3.47,1.83v7.52A13.18,13.18,0,0,1,438.84,65q-3.16-3-4.25-9.79Zm14.7-26.73a14.64,14.64,0,0,1,4.7,4.54,21.44,21.44,0,0,1,2.85,6.7,33.55,33.55,0,0,1,1,8.27,34.46,34.46,0,0,1-.94,8.3,20.9,20.9,0,0,1-2.81,6.61,14,14,0,0,1-4.68,4.43,13.64,13.64,0,0,1-6.53,1.75V60.85l.05-.06A5.43,5.43,0,0,0,454,59.4a9,9,0,0,0,2.1-3.24,15.93,15.93,0,0,0,1-4.37c.15-1.61.22-3.19.22-4.74a37.75,37.75,0,0,0-.29-4.6A16.62,16.62,0,0,0,456,38.19,8.48,8.48,0,0,0,453.8,35a5.16,5.16,0,0,0-3.49-1.31V26A12.7,12.7,0,0,1,456.8,27.77Z" transform="translate(-3.11 -2.45)"/></g><g id="V2Brighty"><path class="cls-5" d="M274.89,39.54A11.91,11.91,0,0,1,276.75,36a11,11,0,0,1,3.06-2.71,14.84,14.84,0,0,1,3.66-1.56,18.75,18.75,0,0,1,4-.67c1.39-.09,2.75-.13,4.1-.13H295v8a5.54,5.54,0,0,1-.76,0,.44.44,0,0,1-.18-.06.44.44,0,0,0-.19-.06,6.16,6.16,0,0,0-.82,0c-1,0-2,0-3.05.15a8.61,8.61,0,0,0-2.87.77,5.57,5.57,0,0,0-2.14,1.74,4.88,4.88,0,0,0-.86,3,4.64,4.64,0,0,0,.8,2.84,5.13,5.13,0,0,0,2,1.62,8.63,8.63,0,0,0,2.72.7c1,.1,2,.15,2.9.15a8.23,8.23,0,0,0,.89,0l.33-.06.34-.06a8,8,0,0,1,.88,0v7.7a8,8,0,0,1-.88,0,.66.66,0,0,1-.31-.1.76.76,0,0,0-.3-.09,8.1,8.1,0,0,0-.89,0c-.73,0-1.54,0-2.44.09a9.2,9.2,0,0,0-2.54.55,5.3,5.3,0,0,0-2,1.32,3.26,3.26,0,0,0-.79,2.32,3.67,3.67,0,0,0,.76,2.44,5,5,0,0,0,1.95,1.41,9.29,9.29,0,0,0,2.57.61c.92.08,1.78.12,2.59.12a7.2,7.2,0,0,0,.86,0l.27-.06.28-.06a5.39,5.39,0,0,1,.85,0l.07,8.06h-.74s0,.06-.12.06h-.67c-2,0-4-.09-6.11-.28a20.51,20.51,0,0,1-5.86-1.34,10.32,10.32,0,0,1-4.4-3.24A9.36,9.36,0,0,1,275.41,63a8.76,8.76,0,0,1,1.53-5.47,14.75,14.75,0,0,1,4.39-3.63,13.34,13.34,0,0,1-5.25-4.06,10.36,10.36,0,0,1-1.83-6.32A12.54,12.54,0,0,1,274.89,39.54Zm34.29-8.62V73.74h-9.65V30.92Z" transform="translate(-3.11 -2.45)"/><path class="cls-5" d="M248.17,55.66a7.94,7.94,0,0,0,2,.24,6.77,6.77,0,0,0,2.41-.45,11,11,0,0,0,1.8-.86,6.62,6.62,0,0,0,.67-.46v8.19l.06.06s-.28.21-.73.52a11.54,11.54,0,0,1-1.89,1,6.45,6.45,0,0,1-2.57.52c-.32,0-.63,0-.91,0l-.92-.09Zm19.24-24.74v32.8h-9.47V30.92Z" transform="translate(-3.11 -2.45)"/><path class="cls-5" d="M244.69,30.92v32.8h-9.28V30.92Zm0,34.45v8.31h-9.28V65.37Z" transform="translate(-3.11 -2.45)"/><path class="cls-5" d="M197,27.41a10.93,10.93,0,0,1,3.33-4.3,13.52,13.52,0,0,1,5.1-2.39,27.45,27.45,0,0,1,6.5-.73,28.08,28.08,0,0,1,4.43.34,15,15,0,0,1,4,1.19,10.77,10.77,0,0,1,3.3,2.35,10.11,10.11,0,0,1,2.23,3.88,8.23,8.23,0,0,1,.55,2.62h-9.9v-.06a4.17,4.17,0,0,0-2.1-2.38,7.82,7.82,0,0,0-3.21-.61q-3.42,0-4.79,1.77a8.1,8.1,0,0,0-1.38,5.07v29.5h-9.28V34A16.11,16.11,0,0,1,197,27.41Zm12.86,6.14a19.43,19.43,0,0,1,4.76-.61,12.33,12.33,0,0,1,10.2,4.82,15.35,15.35,0,0,1,2.57,5.07,20.9,20.9,0,0,1,.85,6,18.26,18.26,0,0,1-.95,5.89,15.56,15.56,0,0,1-2.74,5,13.46,13.46,0,0,1-4.4,3.51,12.84,12.84,0,0,1-5.9,1.32,9.15,9.15,0,0,1-4.45-1.29v-7.2a4.46,4.46,0,0,0,2.32.79,6.16,6.16,0,0,0,3-.7,6.83,6.83,0,0,0,2.2-1.86,9.29,9.29,0,0,0,1.86-5.56,9.49,9.49,0,0,0-.46-3,7.62,7.62,0,0,0-1.34-2.54,6.82,6.82,0,0,0-2.17-1.77,6.18,6.18,0,0,0-2.93-.67,3.68,3.68,0,0,0-2.44,1Z" transform="translate(-3.11 -2.45)"/><path class="cls-5" d="M169,30.92V49.73a21.78,21.78,0,0,0,.15,2.6,6.59,6.59,0,0,0,.64,2.2,3.66,3.66,0,0,0,1.47,1.5,5.43,5.43,0,0,0,2.62.54,1.74,1.74,0,0,0,1-.39,6.43,6.43,0,0,0,.86-.73l.36-.4.06,7.27-.67.55a8.87,8.87,0,0,1-2,1.06,7.42,7.42,0,0,1-3,.58,11.48,11.48,0,0,1-4.86-.94,9.16,9.16,0,0,1-3.36-2.6,10.6,10.6,0,0,1-1.92-3.91,18.48,18.48,0,0,1-.61-4.88V30.92Zm20.34,0V73.68h-9.16V30.92Z" transform="translate(-3.11 -2.45)"/><path class="cls-5" d="M140.07,56.64V41.92a5.29,5.29,0,0,0-.64-2.81,2.81,2.81,0,0,0-2.6-1c-.49,0-1,0-1.46.06s-1,.1-1.41.18V31.05a31.17,31.17,0,0,1,3.24-.34q1.65-.09,3.3-.09,4.83,0,6.9,2.2c1.38,1.46,2.08,3.78,2.08,7V56.64H154v7.14h-4.52v2.08l-9.35,4.88v-7h-6.29V56.64Z" transform="translate(-3.11 -2.45)"/><path class="cls-5" d="M106.18,34.77l4,14.17-3.61,14.72h-10ZM110,24.88a8.32,8.32,0,0,1,2.72-2.48,11.25,11.25,0,0,1,3.6-1.22,27.35,27.35,0,0,1,4.4-.33c.73,0,1.47,0,2.2,0s1.47,0,2.2,0V28.3h-2.63a7.41,7.41,0,0,0-3.78.82q-1.41.82-1.35,3.51a13.8,13.8,0,0,0,.67,3.12c.45,1.5,1,3.27,1.74,5.28s1.5,4.17,2.36,6.48,1.68,4.49,2.47,6.59,1.53,4,2.2,5.71,1.15,3,1.43,3.85H118L108.31,29A11.23,11.23,0,0,1,110,24.88Z" transform="translate(-3.11 -2.45)"/></g></svg>