<svg id="Ebene_1" data-name="Ebene 1" xmlns="http://www.w3.org/2000/svg" viewBox="0 0 687.14 216.27"><defs><style>.cls-1,.cls-2,.cls-3,.cls-4{fill:none;}.cls-1{stroke:blue;stroke-miterlimit:10;}.cls-1,.cls-2{stroke-width:0.28px;}.cls-2,.cls-3,.cls-4{stroke:red;stroke-linecap:round;stroke-linejoin:round;}.cls-3{stroke-width:0.71px;}.cls-4{stroke-width:0.28px;}</style></defs><path class="cls-1" d="M59.43,40.85V142.32l-1.93.11A21.27,21.27,0,0,0,54,143a23.77,23.77,0,0,0-5.17,1.84,22,22,0,0,0-4.11,2.54,25.53,25.53,0,0,0-2.53,2.23,26.86,26.86,0,0,0-3.58,4.68,25,25,0,0,0-2.3,5.15,25.91,25.91,0,0,0-.79,3.38,22.2,22.2,0,0,0-.33,4.3c0,.9.13,1.81.22,2.71a21.22,21.22,0,0,0,1.12,4.85,23.56,23.56,0,0,0,2.91,5.75,20.38,20.38,0,0,0,2,2.54c.44.46.86.94,1.32,1.37a24.14,24.14,0,0,0,4.19,3.19,24.84,24.84,0,0,0,4.49,2.11,20.65,20.65,0,0,0,4.15,1c1,.14,2,.24,3,.33a18.29,18.29,0,0,0,3.39-.14,23.39,23.39,0,0,0,5.54-1.24,22.35,22.35,0,0,0,5.51-2.8c.82-.57,1.59-1.21,2.37-1.84a19.12,19.12,0,0,0,2.5-2.51A24.11,24.11,0,0,0,81.4,177a21.24,21.24,0,0,0,1.39-3.79c.25-1,.48-2,.64-3a24.53,24.53,0,0,0,.23-2.83,23.57,23.57,0,0,0,0-2.66,25.26,25.26,0,0,0-.89-4.79A24.34,24.34,0,0,0,81,155.57a21.91,21.91,0,0,0-2.57-4c-.47-.58-1-1.15-1.47-1.76V35.12l-17.51,5.7-17.6-5.73V149.41a2.58,2.58,0,0,0,0,.29" transform="translate(-3.76 -5.8)"/><path class="cls-1" d="M63.43,154c-1.2-1.19-2.4-2.38-3.59-3.59a4.06,4.06,0,0,0-2.07-1.19,4.12,4.12,0,0,0-1.4-.05,5.23,5.23,0,0,0-3.13,1.65c-2.27,2.3-4.57,4.58-6.85,6.86A4.74,4.74,0,0,0,45,160.21a1.1,1.1,0,0,1-.23.44,2.87,2.87,0,0,0-.63,2A3.05,3.05,0,0,0,46,165.38c.47.21.94.4,1.47.62l-.8.4a4,4,0,0,0-2.21,2.78,3.87,3.87,0,0,0,.29,2.48c.27.6.57,1.18.83,1.78a2.24,2.24,0,0,1,.15.67,3.63,3.63,0,0,0,1,2.16q3.45,3.49,7,6.95a3.83,3.83,0,0,0,2.67,1.1,4.12,4.12,0,0,0,3.13-1.3c.94-.94,1.87-1.88,2.83-2.83a2.62,2.62,0,0,0,2.33.13,2.66,2.66,0,0,0,1.63-2.1,2.89,2.89,0,0,0,2.48-.49,2.7,2.7,0,0,0,1-2.47A2.85,2.85,0,0,0,72,174.12a2.8,2.8,0,0,0,.45-2.22,2.71,2.71,0,0,0,2.22-4.05l1.12-1.07a2.29,2.29,0,0,0,.69-2,1.47,1.47,0,0,0-.17-.55,4.57,4.57,0,0,0-1.81-1.81,1.56,1.56,0,0,0-.17-.07,5.92,5.92,0,0,0,.22-1.13,2.15,2.15,0,0,0-.45-1.32,5.17,5.17,0,0,0-1.35-1.25,3.82,3.82,0,0,0-.55-.24,2.15,2.15,0,0,0-.33-2,6.61,6.61,0,0,0-1.26-1.22,2.07,2.07,0,0,0-2.31-.05c-.26-.23-.52-.46-.77-.7s-.4-.38-.58-.58a2.29,2.29,0,0,0-3.24,0,1.7,1.7,0,0,1-.23.17" transform="translate(-3.76 -5.8)"/><path class="cls-1" d="M70.25,114.84a4.5,4.5,0,0,1,.12,2.74A2.52,2.52,0,0,1,68,119.39a3.35,3.35,0,0,1-1.84-.34,2.5,2.5,0,0,1-1.34-2.17,4.72,4.72,0,0,1,.33-2.11l-2-.52a2.84,2.84,0,0,0-.37,1.23,7.57,7.57,0,0,0,.16,3.07,4.82,4.82,0,0,0,2.66,3.18,5.06,5.06,0,0,0,1.84.44,4.78,4.78,0,0,0,4.37-1.78,5,5,0,0,0,1-2.57,7.54,7.54,0,0,0-.26-3.13,1.92,1.92,0,0,0-.14-.29l-2,.41" transform="translate(-3.76 -5.8)"/><path class="cls-1" d="M65.67,107.25l.69,0v3.19h-3.6V113h9.78V110.4H68.69v-3.17h3.85V104.6H62.76v2.59a2,2,0,0,0,.29,0h2.33a2.06,2.06,0,0,1,.26,0" transform="translate(-3.76 -5.8)"/><path class="cls-1" d="M62.84,54.22l1.78-.91,3.74-2a1.31,1.31,0,0,1,.61-.15h3.57V48.56h-.91c-.95,0-1.89,0-2.83,0a1.73,1.73,0,0,1-.91-.34Q66,47.17,64,46.07c-.38-.21-.76-.44-1.14-.67h-.14v2.93l3.91,1.41v.06l-.92.33L63,51.19a.31.31,0,0,0-.24.34c0,.82,0,1.64,0,2.46a1.53,1.53,0,0,0,.08.26" transform="translate(-3.76 -5.8)"/><path class="cls-1" d="M68.68,96.68c-.29.13-.59.26-.88.41l-3.35,1.66-1.52.79a.32.32,0,0,0-.21.32c0,.92,0,1.85,0,2.77,0,0,0,0,0,.09h9.76v-2.39H72c-1,0-2.1,0-3.15,0-.83,0-1.67.06-2.51.08a1.22,1.22,0,0,1-.26,0" transform="translate(-3.76 -5.8)"/><path class="cls-1" d="M49.25,68.24H50c1.28,0,2.56,0,3.85-.07.82,0,1.65-.07,2.49-.1V65.6L47,66.07v3.35l.71.22,4.06,1.08,1,.26" transform="translate(-3.76 -5.8)"/><path class="cls-1" d="M52.87,71,47,72.35v3.46l9.42.58V74l-.28,0-3.93-.18-1.73-.06-.67,0" transform="translate(-3.76 -5.8)"/><path class="cls-1" d="M52.87,134.64,47,136v3.47l1.14.08,2.8.18,2.1.11,2.57.18c.26,0,.52,0,.8,0V137.7l-.83-.06L53,137.55l-2.92-.12c-.06,0-.12-.09-.19-.14" transform="translate(-3.76 -5.8)"/><path class="cls-1" d="M66.11,100.3l.56-.29,4-2,1.91-1V94.3H62.76v2.38c1.25,0,2.48,0,3.7,0,.65,0,1.3-.07,2-.11l.26,0" transform="translate(-3.76 -5.8)"/><path class="cls-1" d="M52.84,48.7c-.94.42-1.88.81-2.8,1.26S48,51,47,51.57v3h9.41V52.25c-2.08,0-4.15,0-6.22.07" transform="translate(-3.76 -5.8)"/><path class="cls-1" d="M47.26,160.62a2.61,2.61,0,0,0-1,.35,1.9,1.9,0,0,0,.5,3.33l3.38,1.37c1.12.46,2.24.93,3.36,1.37a1.86,1.86,0,1,0,1.31-3.49c-1-.45-2.08-.87-3.12-1.29l-3.79-1.52a5.05,5.05,0,0,0-.56-.12" transform="translate(-3.76 -5.8)"/><path class="cls-1" d="M49.83,131.92l.12,0,1.4,0,4.2-.09c.26,0,.52,0,.82-.07v-2.45l-9.41.47v3.36c.74.21,1.47.43,2.2.62l3.38.85a1,1,0,0,1,.18.09" transform="translate(-3.76 -5.8)"/><path class="cls-1" d="M50.94,115.69H47v2.54h9.41v-2.52a20.39,20.39,0,0,0-2.07,0,2,2,0,0,1-1.68-.79l3.76-2v-3L54.5,111.1,52,112.56a6.44,6.44,0,0,0-.72.42.4.4,0,0,1-.56,0l-3.45-2.6-.2-.12" transform="translate(-3.76 -5.8)"/><path class="cls-1" d="M49.51,68.32l.2,0h0l6.47,1.84v2l-1.56.4-3.36.76-1.14.23a1.27,1.27,0,0,0-.23.12" transform="translate(-3.76 -5.8)"/><path class="cls-1" d="M49.8,132l.82.26,3.88,1.08,1.49.44.19.07v2l-1.36.34-3.33.79c-.51.12-1,.22-1.54.32" transform="translate(-3.76 -5.8)"/><path class="cls-1" d="M50.12,52.21c2.15-.91,4.18-2,6.26-3.09V46.44H47v2.32h.3c1.35,0,2.69,0,4,0,.42,0,.84-.08,1.25-.11l.62,0" transform="translate(-3.76 -5.8)"/><path class="cls-1" d="M60.33,159.05,62.25,161l3.54-3.55-1.93-1.93h0L60.33,159" transform="translate(-3.76 -5.8)"/><path class="cls-1" d="M48.78,60.38h.32a19.88,19.88,0,0,0,3.2.79V59.49l-1.45.37-1.54.38a.71.71,0,0,0-.18.08" transform="translate(-3.76 -5.8)"/><path class="cls-1" d="M47,110.17l0,1.08v2l3.68,2.22.12.12" transform="translate(-3.76 -5.8)"/><path class="cls-1" d="M68.65,162.32c.2-.23.4-.46.61-.67q.52-.54,1.08-1.08l1.87,2-1.35,1.35a4.66,4.66,0,0,0-2.18-1.57" transform="translate(-3.76 -5.8)"/><path class="cls-1" d="M64.89,154.61l2,1.84.4-.51c-.39-.39-.82-.84-1.28-1.27a1,1,0,0,0-1.07-.18" transform="translate(-3.76 -5.8)"/><path class="cls-1" d="M48.78,124l1,.23,2.28.55a.6.6,0,0,0,.19,0v-1.68l-2.35.58-.64.17c-.09,0-.18.08-.27.12" transform="translate(-3.76 -5.8)"/><path class="cls-1" d="M75.16,165.47a.91.91,0,0,0-.21-1,9.67,9.67,0,0,0-.79-.78,1,1,0,0,0-1-.1L75,165.53" transform="translate(-3.76 -5.8)"/><path class="cls-1" d="M71,158.05a1.07,1.07,0,0,0-.35-1.19c-.17-.18-.34-.36-.52-.53a.91.91,0,0,0-1.07-.11l1.83,1.83" transform="translate(-3.76 -5.8)"/><path class="cls-1" d="M73.23,161.5a1.25,1.25,0,0,0-.49-1.2c-.3-.25-.52-.61-1-.64h-.35l0,.08,1.71,1.76" transform="translate(-3.76 -5.8)"/><path class="cls-1" d="M61.38,165.94l-1-1.1,2-2L63.49,164" transform="translate(-3.76 -5.8)"/><path class="cls-1" d="M63.49,164.13a2.69,2.69,0,0,0-2,1.66.27.27,0,0,0,0,.09" transform="translate(-3.76 -5.8)"/><path class="cls-1" d="M49.86,137.37l-.23-.05h-.3v.1h.29" transform="translate(-3.76 -5.8)"/><path class="cls-1" d="M75.74,148.65l.76.76" transform="translate(-3.76 -5.8)"/><path class="cls-1" d="M60.22,142.4h.58" transform="translate(-3.76 -5.8)"/><path class="cls-1" d="M72.53,146.2l.58.41" transform="translate(-3.76 -5.8)"/><path class="cls-1" d="M49.25,131.89h.6c-.12.15-.21.2-.34.09" transform="translate(-3.76 -5.8)"/><path class="cls-1" d="M74.28,147.42l.41.36" transform="translate(-3.76 -5.8)"/><path class="cls-1" d="M49.89,52.29l.22.08,0-.11H50" transform="translate(-3.76 -5.8)"/><path class="cls-1" d="M66,143.28l.3.06" transform="translate(-3.76 -5.8)"/><path class="cls-1" d="M49.42,73.7h.29" transform="translate(-3.76 -5.8)"/><path class="cls-1" d="M69.26,144.45l.29.11" transform="translate(-3.76 -5.8)"/><path class="cls-1" d="M68.88,96.65l-.23,0c.13-.36.39.15.5-.19l-.18,0" transform="translate(-3.76 -5.8)"/><path class="cls-1" d="M62.61,142.58h.23" transform="translate(-3.76 -5.8)"/><path class="cls-1" d="M49.36,73.73a.25.25,0,0,0,.35,0" transform="translate(-3.76 -5.8)"/><path class="cls-1" d="M65.88,100.36l.24-.09c0,.3-.22.07-.3.14" transform="translate(-3.76 -5.8)"/><path class="cls-1" d="M68.85,144.27l.18.06" transform="translate(-3.76 -5.8)"/><path class="cls-1" d="M74.86,147.89l.18.18" transform="translate(-3.76 -5.8)"/><path class="cls-1" d="M76.67,149.59l.18.17" transform="translate(-3.76 -5.8)"/><path class="cls-1" d="M72.06,145.91l.18.11" transform="translate(-3.76 -5.8)"/><path class="cls-1" d="M71.77,145.73l.18.12" transform="translate(-3.76 -5.8)"/><path class="cls-1" d="M71.48,145.56l.17.11" transform="translate(-3.76 -5.8)"/><path class="cls-1" d="M75.33,148.3l.18.18" transform="translate(-3.76 -5.8)"/><path class="cls-1" d="M71,145.26l.18.12" transform="translate(-3.76 -5.8)"/><path class="cls-1" d="M74.05,147.25l.11.12" transform="translate(-3.76 -5.8)"/><path class="cls-1" d="M45.69,170.26a3.4,3.4,0,0,0,.46,1.25l2.06-2.21-.84-1.76a2.64,2.64,0,0,0-1.68,2.69" transform="translate(-3.76 -5.8)"/><path class="cls-1" d="M62.73,129.67c0,.17.18.12.29.12h9.52v-6.54H70.4v3.9H68.61v-3.48H66.46v3.48H64.92v-3.7H62.73v6.19" transform="translate(-3.76 -5.8)"/><path class="cls-1" d="M66.75,165.21a2,2,0,0,0,.74,1.1c.79.81,1.61,1.6,2.41,2.4q.63.61,1.23,1.26a1.83,1.83,0,0,0,1.05.63,1.45,1.45,0,0,0,1.34-.66,1.39,1.39,0,0,0-.2-1.73c-1.4-1.38-2.8-2.76-4.17-4.18a1.4,1.4,0,0,0-2.36.59,2.59,2.59,0,0,0,0,.56" transform="translate(-3.76 -5.8)"/><path class="cls-1" d="M63.25,161.94l1.86,1.89L70,159.09l-2-2c-.12.13-.26.29-.41.44l-4,4.06a3.71,3.71,0,0,0-.27.29" transform="translate(-3.76 -5.8)"/><path class="cls-1" d="M62.73,138.61c.07,0,.13.11.2.11h1.84a.77.77,0,0,0,.19-.05v-2.43h7.57v-2.67H65V131H62.73v7.55" transform="translate(-3.76 -5.8)"/><path class="cls-1" d="M62.67,59a8.74,8.74,0,0,0,.43,1.87A4.61,4.61,0,0,0,66.7,64a5.25,5.25,0,0,0,3.52-.46,4.14,4.14,0,0,0,2-2.39A7.69,7.69,0,0,0,72.65,59a11.83,11.83,0,0,0-.52-3.82H66.74V59h2V57.68h1.67a2.18,2.18,0,0,1,.1,1,2.58,2.58,0,0,1-2.1,2.48A3.15,3.15,0,0,1,66,60.82,2.45,2.45,0,0,1,64.89,59a5.79,5.79,0,0,1,.26-2.83,1.37,1.37,0,0,0,0-.23l-2.06-.52A8.41,8.41,0,0,0,62.67,59" transform="translate(-3.76 -5.8)"/><path class="cls-1" d="M62.61,166.9a1.67,1.67,0,0,0,.52.94c1.89,1.87,3.78,3.73,5.63,5.64a1.4,1.4,0,0,0,2.37-.48,1.46,1.46,0,0,0-.12-1.19,2.11,2.11,0,0,0-.32-.35l-5.6-5.61a1.53,1.53,0,0,0-1.08-.5,1.42,1.42,0,0,0-1.4,1.4v.12" transform="translate(-3.76 -5.8)"/><path class="cls-1" d="M61.21,71.3l.12.67a4.58,4.58,0,0,0,2.1,3.21,5.7,5.7,0,0,0,3.64.87,5.21,5.21,0,0,0,3.54-1.53,4.59,4.59,0,0,0,1.23-2.66,5.83,5.83,0,0,0-.28-2.78,4.55,4.55,0,0,0-3.38-3,6.25,6.25,0,0,0-4.28.33,4.38,4.38,0,0,0-2.57,3.35c-.08.48-.08,1-.12,1.48" transform="translate(-3.76 -5.8)"/><path class="cls-1" d="M71.86,164.89l2,1.89.29-.29-1.95-2-.32.32" transform="translate(-3.76 -5.8)"/><path class="cls-1" d="M61.21,87.71c.08.4.13.81.24,1.2a4.44,4.44,0,0,0,2.15,2.8,6,6,0,0,0,5.31.37,4.36,4.36,0,0,0,2.87-3.43A5.86,5.86,0,0,0,71.35,85a4.3,4.3,0,0,0-2.23-2.11,6.59,6.59,0,0,0-4.2-.34,4.64,4.64,0,0,0-3.17,2.39,4,4,0,0,0-.48,1.75l-.06,1" transform="translate(-3.76 -5.8)"/><path class="cls-1" d="M63.43,87.71a2.29,2.29,0,0,0,2,1.75,5,5,0,0,0,2.83-.17A2,2,0,0,0,69.6,88a1.8,1.8,0,0,0-.95-2.21,4.64,4.64,0,0,0-2.74-.44,3.6,3.6,0,0,0-1.61.55,1.85,1.85,0,0,0-.87,1.81" transform="translate(-3.76 -5.8)"/><path class="cls-1" d="M59.46,169.53a2.09,2.09,0,0,0,.64,1.05q3,2.94,5.89,5.9a1.66,1.66,0,0,0,1.2.56,1.49,1.49,0,0,0,1.29-.94,1.33,1.33,0,0,0-.33-1.43c-2.1-2.12-4.22-4.23-6.33-6.34a1.35,1.35,0,0,0-1.51-.29,1.44,1.44,0,0,0-.85,1.31v.15" transform="translate(-3.76 -5.8)"/><path class="cls-1" d="M57.88,173.62a2,2,0,0,0,.64,1l4.15,4.14a1.38,1.38,0,0,0,1.93.09,1.31,1.31,0,0,0,.4-1.46,1.07,1.07,0,0,0-.26-.4c-1.16-1.18-2.33-2.34-3.5-3.51a12.22,12.22,0,0,1-1.07-1.09,1.32,1.32,0,0,0-2.1.31,3.22,3.22,0,0,0-.19.84" transform="translate(-3.76 -5.8)"/><path class="cls-1" d="M57.48,162l2,1.86,1.91-1.91-2-1.95-.4.39-1.37,1.37a1,1,0,0,0-.14.21" transform="translate(-3.76 -5.8)"/><path class="cls-1" d="M63.43,71.24a2.29,2.29,0,0,0,2,1.76,4.92,4.92,0,0,0,2.94-.19,1.9,1.9,0,0,0,1.23-1.22,1.78,1.78,0,0,0-.76-2.18A3.61,3.61,0,0,0,67,68.86a4.65,4.65,0,0,0-2.27.31,2,2,0,0,0-1.31,1.46,3.76,3.76,0,0,0,0,.58" transform="translate(-3.76 -5.8)"/><path class="cls-1" d="M50.18,43.27a1.35,1.35,0,0,0,.88,1.14,1.55,1.55,0,0,0,1.6-.32,1.49,1.49,0,0,0,.2-1.66,1.36,1.36,0,0,0-1.48-.68,1.31,1.31,0,0,0-1.2,1.49" transform="translate(-3.76 -5.8)"/><path class="cls-1" d="M50.18,99.51a1.35,1.35,0,0,0,.88,1.14,1.58,1.58,0,0,0,1.6-.32,1.5,1.5,0,0,0,.2-1.67A1.36,1.36,0,0,0,51.38,98a1.31,1.31,0,0,0-1.2,1.49" transform="translate(-3.76 -5.8)"/><path class="cls-1" d="M64.57,80.91c.06,0,.13.11.2.11h9.61V74.66H72.19v3.72H64.57v2.5" transform="translate(-3.76 -5.8)"/><path class="cls-1" d="M64.71,87.48c.2.65.76.79,1.32.89a2.67,2.67,0,0,0,1.69-.19,2.21,2.21,0,0,0,.34-.18.65.65,0,0,0,0-1.16,2.72,2.72,0,0,0-1.93-.35,2,2,0,0,0-1.08.43.71.71,0,0,0-.29.53" transform="translate(-3.76 -5.8)"/><path class="cls-1" d="M48.55,167l.61,1.31.58-.58-.93-.94-.26.18" transform="translate(-3.76 -5.8)"/><path class="cls-1" d="M64.71,71.07c.21.59.73.74,1.26.84a3.14,3.14,0,0,0,1.66-.14,1.92,1.92,0,0,0,.55-.33.65.65,0,0,0-.23-1.1,2.89,2.89,0,0,0-2.68,0,.77.77,0,0,0-.56.75" transform="translate(-3.76 -5.8)"/><path class="cls-1" d="M47,173.82a3.1,3.1,0,0,0,1,1.87c2.2,2.19,4.39,4.39,6.6,6.57a2.71,2.71,0,0,0,3.84.05c1-.92,1.91-1.92,2.87-2.88,0,0,0-.06.05-.12s-.17-.17-.26-.26q-1.77-1.78-3.56-3.56a2.9,2.9,0,0,1-.91-1.84,2.64,2.64,0,0,1,.62-1.93,3,3,0,0,1,1.37-.89,2.77,2.77,0,0,1-.26-2.38,2.71,2.71,0,0,1,1.94-1.74l-3.81-3.81-.14.11a1.3,1.3,0,0,0,.12.21,3.15,3.15,0,0,1-1.08,5,3.09,3.09,0,0,1-2.46,0l-1.2-.49c-.65.62-1.26,1.19-1.86,1.78s-1.23,1.26-1.87,1.86a2.9,2.9,0,0,0-1,2.43" transform="translate(-3.76 -5.8)"/><path class="cls-1" d="M46.94,61.93a5.21,5.21,0,0,0,.5.2l6.68,1.93,2.25.67V62.08l-2.15-.53V59.12l2.16-.6V55.77l-9.44,2.81V61.9" transform="translate(-3.76 -5.8)"/><path class="cls-1" d="M46.94,85.87c.07,0,.14.11.21.11,1.78,0,3.56,0,5.34,0a5.12,5.12,0,0,0,2.28-.54A3.18,3.18,0,0,0,56.48,83a5.84,5.84,0,0,0-.11-2.39,3.26,3.26,0,0,0-2.49-2.47,7,7,0,0,0-1.71-.21c-1.66,0-3.31,0-5,0H47v2.57h.36c1.78,0,3.56,0,5.34,0a2.12,2.12,0,0,1,1.47.48,1.4,1.4,0,0,1-.42,2.23,3.29,3.29,0,0,1-1.17.23h-5.6v2.42" transform="translate(-3.76 -5.8)"/><path class="cls-1" d="M46.94,95.74c0,.17.14.12.24.12h9.19V93.3H52.66V90.24h3.71V87.7H47v2.55H50.4v3H46.94v2.44" transform="translate(-3.76 -5.8)"/><path class="cls-1" d="M46.94,109.06c0,.24.26.13.35.13.75,0,1.5,0,2.25,0l2.28,0,2.5,0h1.93a.38.38,0,0,0,.13,0v-6.31H54.31v3.75H52.59v-3.32H50.5v3.34H49v-3.56H46.94v6" transform="translate(-3.76 -5.8)"/><path class="cls-1" d="M46.94,125.53c.12.25.39.22.59.28,2.19.65,4.39,1.27,6.59,1.91l2.25.65v-2.64l-2.15-.53v-2.43l2.15-.59v-2.76l-9.43,2.81v3.27" transform="translate(-3.76 -5.8)"/><path class="cls-1" d="M46.68,159.37a1.18,1.18,0,0,0,.26,0,4.12,4.12,0,0,1,2.1.44c1.24.52,2.47,1,3.71,1.52l2.13.88.25.09c2.47-2.46,4.92-4.89,7.39-7.33a1.93,1.93,0,0,0-.17-.21l-3.65-3.65a2.45,2.45,0,0,0-2.07-.69,3.7,3.7,0,0,0-2.36,1.16c-2.26,2.26-4.52,4.51-6.77,6.78-.3.3-.55.64-.82,1" transform="translate(-3.76 -5.8)"/><g id="LINE"><line class="cls-2" x1="539.74" y1="204.79" x2="551.08" y2="204.79"/></g><g id="LINE-2" data-name="LINE"><line class="cls-2" x1="551.08" y1="204.79" x2="560.61" y2="204.95"/></g><g id="LINE-3" data-name="LINE"><line class="cls-2" x1="560.61" y1="204.95" x2="569.2" y2="204.95"/></g><g id="LINE-4" data-name="LINE"><line class="cls-2" x1="569.2" y1="204.95" x2="579.43" y2="204.79"/></g><g id="LINE-5" data-name="LINE"><line class="cls-2" x1="579.43" y1="204.79" x2="590.77" y2="204.79"/></g><g id="LINE-6" data-name="LINE"><line class="cls-2" x1="590.77" y1="204.79" x2="590.77" y2="48.32"/></g><g id="LINE-7" data-name="LINE"><line class="cls-2" x1="590.77" y1="48.32" x2="603.95" y2="48.32"/></g><g id="LINE-8" data-name="LINE"><line class="cls-2" x1="603.95" y1="48.32" x2="603.95" y2="207.63"/></g><g id="LINE-9" data-name="LINE"><line class="cls-2" x1="603.95" y1="207.63" x2="659.79" y2="207.63"/></g><g id="LINE-10" data-name="LINE"><line class="cls-2" x1="659.79" y1="207.63" x2="659.79" y2="216.13"/></g><g id="LINE-11" data-name="LINE"><line class="cls-2" x1="659.79" y1="216.13" x2="687" y2="216.13"/></g><g id="LINE-12" data-name="LINE"><line class="cls-2" x1="687" y1="216.13" x2="687" y2="188.92"/></g><g id="LINE-13" data-name="LINE"><line class="cls-2" x1="687" y1="188.92" x2="678.5" y2="188.92"/></g><g id="LINE-14" data-name="LINE"><line class="cls-2" x1="678.5" y1="188.92" x2="678.5" y2="27.91"/></g><g id="LINE-15" data-name="LINE"><line class="cls-2" x1="678.5" y1="27.91" x2="687" y2="27.91"/></g><g id="LINE-16" data-name="LINE"><line class="cls-2" x1="687" y1="27.91" x2="687" y2="0.7"/></g><g id="LINE-17" data-name="LINE"><line class="cls-2" x1="687" y1="0.7" x2="659.79" y2="0.7"/></g><g id="LINE-18" data-name="LINE"><line class="cls-2" x1="659.79" y1="0.7" x2="659.79" y2="9.2"/></g><g id="LINE-19" data-name="LINE"><line class="cls-2" x1="659.79" y1="9.2" x2="379.73" y2="9.2"/></g><g id="LINE-20" data-name="LINE"><line class="cls-2" x1="379.73" y1="9.2" x2="379.73" y2="0.7"/></g><g id="LINE-21" data-name="LINE"><line class="cls-2" x1="379.73" y1="0.7" x2="352.51" y2="0.7"/></g><g id="LINE-22" data-name="LINE"><line class="cls-2" x1="352.51" y1="0.7" x2="352.51" y2="27.91"/></g><g id="LINE-23" data-name="LINE"><line class="cls-2" x1="352.51" y1="27.91" x2="361.02" y2="27.91"/></g><g id="LINE-24" data-name="LINE"><line class="cls-2" x1="361.02" y1="27.91" x2="361.02" y2="188.92"/></g><g id="LINE-25" data-name="LINE"><line class="cls-2" x1="361.02" y1="188.92" x2="352.51" y2="188.92"/></g><g id="LINE-26" data-name="LINE"><line class="cls-2" x1="352.51" y1="188.92" x2="352.51" y2="216.13"/></g><g id="LINE-27" data-name="LINE"><line class="cls-2" x1="352.51" y1="216.13" x2="379.73" y2="216.13"/></g><g id="LINE-28" data-name="LINE"><line class="cls-2" x1="379.73" y1="216.13" x2="379.73" y2="207.63"/></g><g id="LINE-29" data-name="LINE"><line class="cls-2" x1="379.73" y1="207.63" x2="525.14" y2="207.63"/></g><g id="LINE-30" data-name="LINE"><line class="cls-2" x1="525.14" y1="207.63" x2="525.14" y2="48.32"/></g><g id="LINE-31" data-name="LINE"><line class="cls-2" x1="525.14" y1="48.32" x2="539.74" y2="48.32"/></g><g id="LINE-32" data-name="LINE"><line class="cls-2" x1="539.74" y1="48.32" x2="539.74" y2="204.79"/></g><g id="LINE-33" data-name="LINE"><line class="cls-2" x1="467.88" y1="128.44" x2="458.98" y2="125.13"/></g><g id="LINE-34" data-name="LINE"><line class="cls-2" x1="458.98" y1="125.13" x2="457.39" y2="115.77"/></g><g id="LINE-35" data-name="LINE"><line class="cls-2" x1="457.39" y1="115.77" x2="464.71" y2="109.72"/></g><g id="LINE-36" data-name="LINE"><line class="cls-2" x1="464.71" y1="109.72" x2="473.6" y2="113.03"/></g><g id="LINE-37" data-name="LINE"><line class="cls-2" x1="473.6" y1="113.03" x2="475.19" y2="122.39"/></g><g id="LINE-38" data-name="LINE"><line class="cls-2" x1="475.19" y1="122.39" x2="467.88" y2="128.44"/></g><g id="LINE-39" data-name="LINE"><line class="cls-2" x1="381" y1="71.71" x2="372.78" y2="71.71"/></g><g id="LINE-40" data-name="LINE"><line class="cls-2" x1="372.78" y1="71.71" x2="372.78" y2="33.44"/></g><g id="LINE-41" data-name="LINE"><line class="cls-2" x1="372.78" y1="33.44" x2="410.81" y2="33.44"/></g><g id="LINE-42" data-name="LINE"><line class="cls-2" x1="410.81" y1="33.44" x2="410.81" y2="40.53"/></g><g id="LINE-43" data-name="LINE"><line class="cls-2" x1="410.81" y1="40.53" x2="439.16" y2="40.53"/></g><g id="LINE-44" data-name="LINE"><line class="cls-2" x1="439.16" y1="40.53" x2="439.16" y2="33.44"/></g><g id="LINE-45" data-name="LINE"><line class="cls-2" x1="439.16" y1="33.44" x2="473.41" y2="33.44"/></g><g id="LINE-46" data-name="LINE"><line class="cls-2" x1="473.41" y1="33.44" x2="473.41" y2="91.56"/></g><g id="LINE-47" data-name="LINE"><line class="cls-2" x1="473.41" y1="91.56" x2="464.91" y2="91.56"/></g><g id="LINE-48" data-name="LINE"><line class="cls-2" x1="464.91" y1="91.56" x2="464.91" y2="100.06"/></g><g id="LINE-49" data-name="LINE"><line class="cls-2" x1="464.91" y1="100.06" x2="381" y2="100.06"/></g><g id="LINE-50" data-name="LINE"><line class="cls-2" x1="381" y1="100.06" x2="381" y2="71.71"/></g><g id="LINE-51" data-name="LINE"><line class="cls-2" x1="483.55" y1="29.34" x2="517.56" y2="29.34"/></g><g id="LINE-52" data-name="LINE"><line class="cls-2" x1="517.56" y1="29.34" x2="517.56" y2="121.76"/></g><g id="LINE-53" data-name="LINE"><line class="cls-2" x1="517.56" y1="121.76" x2="483.55" y2="121.76"/></g><g id="LINE-54" data-name="LINE"><line class="cls-2" x1="483.55" y1="121.76" x2="483.55" y2="29.34"/></g><g id="LINE-55" data-name="LINE"><line class="cls-2" x1="373.91" y1="187.93" x2="373.91" y2="104.3"/></g><g id="LINE-56" data-name="LINE"><line class="cls-2" x1="373.91" y1="104.3" x2="449.03" y2="104.3"/></g><g id="LINE-57" data-name="LINE"><line class="cls-2" x1="449.03" y1="104.3" x2="449.03" y2="187.93"/></g><g id="LINE-58" data-name="LINE"><line class="cls-2" x1="449.03" y1="187.93" x2="381" y2="187.93"/></g><g id="LINE-59" data-name="LINE"><line class="cls-2" x1="381" y1="187.93" x2="373.91" y2="187.93"/></g><g id="LINE-60" data-name="LINE"><line class="cls-2" x1="461.79" y1="138.1" x2="517.06" y2="138.1"/></g><g id="LINE-61" data-name="LINE"><line class="cls-2" x1="517.06" y1="138.1" x2="517.06" y2="193.38"/></g><g id="LINE-62" data-name="LINE"><line class="cls-2" x1="517.06" y1="193.38" x2="461.79" y2="193.38"/></g><g id="LINE-63" data-name="LINE"><line class="cls-2" x1="461.79" y1="193.38" x2="461.79" y2="138.1"/></g><circle class="cls-3" cx="112.08" cy="119.11" r="4.82"/><path class="cls-4" d="M12.69,213.15h31c.14,0,0-.14,0,0l.32,8.36a.15.15,0,0,0,.15.14H60.62a.14.14,0,0,0,.14-.14l.26-8.36c0-.14-.14,0,0,0H77.74c.14,0,0-.14,0,0l.31,8.43a.14.14,0,0,0,.14.14H94.67a.14.14,0,0,0,.14-.14l.22-8.43c0-.14-.14,0,0,0h16.73c.14,0,0-.14,0,0l.43,8.5a.15.15,0,0,0,.14.15h16.44a.15.15,0,0,0,.14-.15l.14-8.5c0-.14-.14,0,0,0h16.72c.15,0,0-.14,0,0l.15,8.5a.15.15,0,0,0,.14.15h16.72a.15.15,0,0,0,.14-.15l.14-8.5c0-.14-.14,0,0,0h16.73c.14,0,0-.14,0,0l.14,8.5a.15.15,0,0,0,.14.15H196.8a.15.15,0,0,0,.14-.15l.14-8.5c0-.14-.14,0,0,0H213.8c.15,0,0-.14,0,0l.15,8.5a.15.15,0,0,0,.14.15l16.86-.15a.15.15,0,0,0,.15-.14v-8.36c0-.14-.15,0,0,0h16.72c.14,0,0-.14,0,0l.14,8.5a.15.15,0,0,0,.14.15h16.5a.15.15,0,0,0,.15-.15l.36-8.5c0-.14-.14,0,0,0h16.73c.14,0,0-.14,0,0l.14,8.5a.15.15,0,0,0,.14.15h16.45a.15.15,0,0,0,.14-.15l.42-8.5c0-.14-.14,0,0,0h31a.14.14,0,0,0,.14-.14V190.47c0-.14-.14,0,0,0h8.36a.14.14,0,0,0,.14-.14v-17a.14.14,0,0,0-.14-.14h-8.36c-.14,0,0,.14,0,0V156.46c0-.14-.14,0,0,0h8.36a.14.14,0,0,0,.14-.14v-17a.14.14,0,0,0-.14-.14h-8.36c-.14,0,0,.14,0,0V122.44c0-.14-.14,0,0,0h8.36a.14.14,0,0,0,.14-.14v-17a.14.14,0,0,0-.14-.14h-8.36c-.14,0,0,.14,0,0V88.43c0-.15-.14,0,0,0h8.36a.15.15,0,0,0,.14-.15v-17a.15.15,0,0,0-.14-.15h-8.36c-.14,0,0,.15,0,0V54.41c0-.14-.14,0,0,0h8.36a.14.14,0,0,0,.14-.14v-17a.14.14,0,0,0-.14-.14h-8.36c-.14,0,0,.14,0,0V14.58a.14.14,0,0,0-.14-.14h-31c-.14,0,0,.14,0,0V6.08a.14.14,0,0,0-.14-.14H282a.14.14,0,0,0-.14.14v8.36c0,.14.14,0,0,0H265.11c-.14,0,0,.14,0,0V6.08a.14.14,0,0,0-.14-.14H248a.14.14,0,0,0-.14.14v8.36c0,.14.14,0,0,0H231.1c-.15,0,0,.14,0,0V6.08a.15.15,0,0,0-.15-.14H214a.15.15,0,0,0-.15.14v8.36c0,.14.15,0,0,0H197.08c-.14,0,0,.14,0,0V6.08a.14.14,0,0,0-.14-.14h-17a.14.14,0,0,0-.14.14v8.36c0,.14.14,0,0,0H163.06c-.14,0,0,.14,0,0V6.08a.14.14,0,0,0-.14-.14h-17a.15.15,0,0,0-.15.14v8.36c0,.14.15,0,0,0H129.05c-.14,0,0,.14,0,0V6.08a.14.14,0,0,0-.14-.14h-17a.14.14,0,0,0-.14.14v8.36c0,.14.14,0,0,0H95c-.14,0,0,.14,0,0V6.08a.14.14,0,0,0-.14-.14h-17a.14.14,0,0,0-.14.14v8.36c0,.14.14,0,0,0H61c-.14,0,0,.14,0,0V6.08a.14.14,0,0,0-.14-.14h-17a.14.14,0,0,0-.14.14v8.36c0,.14.14,0,0,0h-31a.15.15,0,0,0-.15.14V37.12c0,.14.15,0,0,0l-8.21.41a.14.14,0,0,0-.14.14L4,54.27a.14.14,0,0,0,.14.14h8.36c.15,0,0-.14,0,0V71.13c0,.15.15,0,0,0l-8.24.26a.15.15,0,0,0-.14.15l0,16.5a.14.14,0,0,0,.14.14l8.21.25c.15,0,0-.15,0,0v16.72c0,.14.15,0,0,0l-8.5.14a.14.14,0,0,0-.14.14L4,122.3a.14.14,0,0,0,.14.14h8.36c.15,0,0-.14,0,0v16.73c0,.14.15,0,0,0l-8.15.3a.14.14,0,0,0-.14.14L4,156.32a.14.14,0,0,0,.14.14h8.36c.15,0,0-.14,0,0v16.72c0,.14.15,0,0,0l-8.5.14a.14.14,0,0,0-.14.14L4,190.33a.14.14,0,0,0,.14.14h8.36c.15,0,0-.14,0,0V213a.15.15,0,0,0,.15.14" transform="translate(-3.76 -5.8)"/></svg>